<mxfile modified="2023-07-17T00:09:17.986Z" host="Electron" agent="Mozilla/5.0 (Macintosh; Intel Mac OS X 10_15_7) AppleWebKit/537.36 (KHTML, like Gecko) draw.io/21.6.1 Chrome/112.0.5615.204 Electron/24.6.1 Safari/537.36" etag="SikfJZL3Sd7nt6BOCuJQ" version="21.6.1" type="device">
  <diagram id="Ht1M8jgEwFfnCIfOTk4-" name="Page-1">
    <mxGraphModel dx="1050" dy="1528" grid="1" gridSize="10" guides="1" tooltips="1" connect="1" arrows="1" fold="1" page="1" pageScale="1" pageWidth="1100" pageHeight="850" background="#ffffff" math="0" shadow="0">
      <root>
        <mxCell id="0" />
        <mxCell id="1" parent="0" />
        <mxCell id="UEzPUAAOIrF-is8g5C7q-175" value="AWS Cloud" style="points=[[0,0],[0.25,0],[0.5,0],[0.75,0],[1,0],[1,0.25],[1,0.5],[1,0.75],[1,1],[0.75,1],[0.5,1],[0.25,1],[0,1],[0,0.75],[0,0.5],[0,0.25]];outlineConnect=0;gradientColor=none;html=1;whiteSpace=wrap;fontSize=12;fontStyle=0;shape=mxgraph.aws4.group;grIcon=mxgraph.aws4.group_aws_cloud_alt;strokeColor=#232F3E;fillColor=none;verticalAlign=top;align=left;spacingLeft=30;fontColor=#232F3E;dashed=0;labelBackgroundColor=#ffffff;container=1;pointerEvents=0;collapsible=0;recursiveResize=0;" parent="1" vertex="1">
          <mxGeometry x="240" y="-720" width="840" height="680" as="geometry" />
        </mxCell>
        <mxCell id="lJbwwW_WX1DoQPfi_LCT-2" style="edgeStyle=orthogonalEdgeStyle;rounded=0;orthogonalLoop=1;jettySize=auto;html=1;entryX=0;entryY=0.5;entryDx=0;entryDy=0;entryPerimeter=0;startArrow=classic;startFill=1;" parent="UEzPUAAOIrF-is8g5C7q-175" source="AB8S8MmQHIN8iAVKSJhB-4" target="lJbwwW_WX1DoQPfi_LCT-1" edge="1">
          <mxGeometry relative="1" as="geometry" />
        </mxCell>
        <mxCell id="AB8S8MmQHIN8iAVKSJhB-4" value="/rank" style="sketch=0;points=[[0,0,0],[0.25,0,0],[0.5,0,0],[0.75,0,0],[1,0,0],[0,1,0],[0.25,1,0],[0.5,1,0],[0.75,1,0],[1,1,0],[0,0.25,0],[0,0.5,0],[0,0.75,0],[1,0.25,0],[1,0.5,0],[1,0.75,0]];outlineConnect=0;fontColor=#232F3E;gradientColor=#945DF2;gradientDirection=north;fillColor=#5A30B5;strokeColor=#ffffff;dashed=0;verticalLabelPosition=bottom;verticalAlign=top;align=center;html=1;fontSize=12;fontStyle=0;aspect=fixed;shape=mxgraph.aws4.resourceIcon;resIcon=mxgraph.aws4.api_gateway;labelBackgroundColor=none;" parent="UEzPUAAOIrF-is8g5C7q-175" vertex="1">
          <mxGeometry x="160" y="260" width="75" height="75" as="geometry" />
        </mxCell>
        <mxCell id="7-jYD9q1cmxNyFZY4TW0-17" style="edgeStyle=orthogonalEdgeStyle;rounded=0;orthogonalLoop=1;jettySize=auto;html=1;exitX=1;exitY=0.5;exitDx=0;exitDy=0;exitPerimeter=0;" parent="UEzPUAAOIrF-is8g5C7q-175" source="2eGMusATND9MoII4XUgv-3" target="7-jYD9q1cmxNyFZY4TW0-16" edge="1">
          <mxGeometry relative="1" as="geometry">
            <Array as="points">
              <mxPoint x="800" y="343" />
              <mxPoint x="800" y="580" />
            </Array>
          </mxGeometry>
        </mxCell>
        <mxCell id="7-jYD9q1cmxNyFZY4TW0-21" value="&amp;nbsp;send&amp;nbsp;&lt;br&gt;&amp;nbsp;ranking message&amp;nbsp;" style="edgeLabel;html=1;align=center;verticalAlign=middle;resizable=0;points=[];" parent="7-jYD9q1cmxNyFZY4TW0-17" vertex="1" connectable="0">
          <mxGeometry x="0.0322" y="-1" relative="1" as="geometry">
            <mxPoint x="-183" y="-1" as="offset" />
          </mxGeometry>
        </mxCell>
        <mxCell id="lJbwwW_WX1DoQPfi_LCT-29" style="edgeStyle=orthogonalEdgeStyle;rounded=0;orthogonalLoop=1;jettySize=auto;html=1;entryX=0;entryY=0.5;entryDx=0;entryDy=0;entryPerimeter=0;" parent="UEzPUAAOIrF-is8g5C7q-175" source="uaZkST2R03m6mHmcRqh3-25" target="2eGMusATND9MoII4XUgv-3" edge="1">
          <mxGeometry relative="1" as="geometry">
            <Array as="points">
              <mxPoint x="580" y="418" />
              <mxPoint x="580" y="343" />
            </Array>
          </mxGeometry>
        </mxCell>
        <mxCell id="lJbwwW_WX1DoQPfi_LCT-30" value="&amp;nbsp;download&amp;nbsp;" style="edgeLabel;html=1;align=center;verticalAlign=middle;resizable=0;points=[];" parent="lJbwwW_WX1DoQPfi_LCT-29" vertex="1" connectable="0">
          <mxGeometry x="0.3886" y="-1" relative="1" as="geometry">
            <mxPoint x="16" y="-1" as="offset" />
          </mxGeometry>
        </mxCell>
        <mxCell id="uaZkST2R03m6mHmcRqh3-25" value="&lt;span style=&quot;background-color: rgb(255, 255, 255);&quot;&gt;55+ Communities (xlsx)&lt;/span&gt;" style="sketch=0;points=[[0,0,0],[0.25,0,0],[0.5,0,0],[0.75,0,0],[1,0,0],[0,1,0],[0.25,1,0],[0.5,1,0],[0.75,1,0],[1,1,0],[0,0.25,0],[0,0.5,0],[0,0.75,0],[1,0.25,0],[1,0.5,0],[1,0.75,0]];outlineConnect=0;fontColor=#232F3E;gradientColor=#60A337;gradientDirection=north;fillColor=#277116;strokeColor=#ffffff;dashed=0;verticalLabelPosition=bottom;verticalAlign=top;align=center;html=1;fontSize=12;fontStyle=0;aspect=fixed;shape=mxgraph.aws4.resourceIcon;resIcon=mxgraph.aws4.s3;labelPosition=center;labelBackgroundColor=none;" parent="UEzPUAAOIrF-is8g5C7q-175" vertex="1">
          <mxGeometry x="470" y="380" width="75" height="75" as="geometry" />
        </mxCell>
        <mxCell id="7-jYD9q1cmxNyFZY4TW0-10" style="edgeStyle=orthogonalEdgeStyle;rounded=0;orthogonalLoop=1;jettySize=auto;html=1;entryX=0;entryY=0.5;entryDx=0;entryDy=0;entryPerimeter=0;" parent="UEzPUAAOIrF-is8g5C7q-175" source="7-jYD9q1cmxNyFZY4TW0-7" target="7-jYD9q1cmxNyFZY4TW0-9" edge="1">
          <mxGeometry relative="1" as="geometry" />
        </mxCell>
        <mxCell id="7-jYD9q1cmxNyFZY4TW0-7" value="/update_data" style="sketch=0;points=[[0,0,0],[0.25,0,0],[0.5,0,0],[0.75,0,0],[1,0,0],[0,1,0],[0.25,1,0],[0.5,1,0],[0.75,1,0],[1,1,0],[0,0.25,0],[0,0.5,0],[0,0.75,0],[1,0.25,0],[1,0.5,0],[1,0.75,0]];outlineConnect=0;fontColor=#232F3E;gradientColor=#945DF2;gradientDirection=north;fillColor=#5A30B5;strokeColor=#ffffff;dashed=0;verticalLabelPosition=bottom;verticalAlign=top;align=center;html=1;fontSize=12;fontStyle=0;aspect=fixed;shape=mxgraph.aws4.resourceIcon;resIcon=mxgraph.aws4.api_gateway;labelBackgroundColor=none;" parent="UEzPUAAOIrF-is8g5C7q-175" vertex="1">
          <mxGeometry x="160" y="380" width="75" height="75" as="geometry" />
        </mxCell>
        <mxCell id="lJbwwW_WX1DoQPfi_LCT-38" style="edgeStyle=orthogonalEdgeStyle;rounded=0;orthogonalLoop=1;jettySize=auto;html=1;entryX=0;entryY=0.5;entryDx=0;entryDy=0;entryPerimeter=0;" parent="UEzPUAAOIrF-is8g5C7q-175" source="7-jYD9q1cmxNyFZY4TW0-9" target="uaZkST2R03m6mHmcRqh3-25" edge="1">
          <mxGeometry relative="1" as="geometry" />
        </mxCell>
        <mxCell id="lJbwwW_WX1DoQPfi_LCT-39" value="&amp;nbsp;upload&amp;nbsp;" style="edgeLabel;html=1;align=center;verticalAlign=middle;resizable=0;points=[];" parent="lJbwwW_WX1DoQPfi_LCT-38" vertex="1" connectable="0">
          <mxGeometry x="-0.2533" y="-1" relative="1" as="geometry">
            <mxPoint x="6" y="-1" as="offset" />
          </mxGeometry>
        </mxCell>
        <mxCell id="7-jYD9q1cmxNyFZY4TW0-9" value="UpdateCommunityData" style="sketch=0;points=[[0,0,0],[0.25,0,0],[0.5,0,0],[0.75,0,0],[1,0,0],[0,1,0],[0.25,1,0],[0.5,1,0],[0.75,1,0],[1,1,0],[0,0.25,0],[0,0.5,0],[0,0.75,0],[1,0.25,0],[1,0.5,0],[1,0.75,0]];outlineConnect=0;fontColor=#232F3E;gradientColor=#F78E04;gradientDirection=north;fillColor=#D05C17;strokeColor=#ffffff;dashed=0;verticalLabelPosition=bottom;verticalAlign=top;align=center;html=1;fontSize=12;fontStyle=0;aspect=fixed;shape=mxgraph.aws4.resourceIcon;resIcon=mxgraph.aws4.lambda;" parent="UEzPUAAOIrF-is8g5C7q-175" vertex="1">
          <mxGeometry x="320" y="380" width="75" height="75" as="geometry" />
        </mxCell>
        <mxCell id="7-jYD9q1cmxNyFZY4TW0-15" value="EmailUser" style="sketch=0;points=[[0,0,0],[0.25,0,0],[0.5,0,0],[0.75,0,0],[1,0,0],[0,1,0],[0.25,1,0],[0.5,1,0],[0.75,1,0],[1,1,0],[0,0.25,0],[0,0.5,0],[0,0.75,0],[1,0.25,0],[1,0.5,0],[1,0.75,0]];outlineConnect=0;fontColor=#232F3E;gradientColor=#F78E04;gradientDirection=north;fillColor=#D05C17;strokeColor=#ffffff;dashed=0;verticalLabelPosition=bottom;verticalAlign=top;align=center;html=1;fontSize=12;fontStyle=0;aspect=fixed;shape=mxgraph.aws4.resourceIcon;resIcon=mxgraph.aws4.lambda;" parent="UEzPUAAOIrF-is8g5C7q-175" vertex="1">
          <mxGeometry x="245" y="540" width="75" height="75" as="geometry" />
        </mxCell>
        <mxCell id="7-jYD9q1cmxNyFZY4TW0-18" style="edgeStyle=orthogonalEdgeStyle;rounded=0;orthogonalLoop=1;jettySize=auto;html=1;" parent="UEzPUAAOIrF-is8g5C7q-175" source="7-jYD9q1cmxNyFZY4TW0-16" target="7-jYD9q1cmxNyFZY4TW0-15" edge="1">
          <mxGeometry relative="1" as="geometry" />
        </mxCell>
        <mxCell id="7-jYD9q1cmxNyFZY4TW0-23" value="&amp;nbsp;trigger&amp;nbsp;" style="edgeLabel;html=1;align=center;verticalAlign=middle;resizable=0;points=[];" parent="7-jYD9q1cmxNyFZY4TW0-18" vertex="1" connectable="0">
          <mxGeometry x="-0.1882" y="1" relative="1" as="geometry">
            <mxPoint x="-3" y="-2" as="offset" />
          </mxGeometry>
        </mxCell>
        <mxCell id="7-jYD9q1cmxNyFZY4TW0-16" value="FIFO Queue" style="sketch=0;points=[[0,0,0],[0.25,0,0],[0.5,0,0],[0.75,0,0],[1,0,0],[0,1,0],[0.25,1,0],[0.5,1,0],[0.75,1,0],[1,1,0],[0,0.25,0],[0,0.5,0],[0,0.75,0],[1,0.25,0],[1,0.5,0],[1,0.75,0]];outlineConnect=0;fontColor=#232F3E;gradientColor=#FF4F8B;gradientDirection=north;fillColor=#BC1356;strokeColor=#ffffff;dashed=0;verticalLabelPosition=bottom;verticalAlign=top;align=center;html=1;fontSize=12;fontStyle=0;aspect=fixed;shape=mxgraph.aws4.resourceIcon;resIcon=mxgraph.aws4.sqs;labelPosition=center;" parent="UEzPUAAOIrF-is8g5C7q-175" vertex="1">
          <mxGeometry x="395" y="540" width="75" height="75" as="geometry" />
        </mxCell>
        <mxCell id="lJbwwW_WX1DoQPfi_LCT-31" style="edgeStyle=orthogonalEdgeStyle;rounded=0;orthogonalLoop=1;jettySize=auto;html=1;exitX=1;exitY=0.25;exitDx=0;exitDy=0;exitPerimeter=0;" parent="UEzPUAAOIrF-is8g5C7q-175" source="lJbwwW_WX1DoQPfi_LCT-1" target="lJbwwW_WX1DoQPfi_LCT-3" edge="1">
          <mxGeometry relative="1" as="geometry">
            <Array as="points">
              <mxPoint x="500" y="279" />
              <mxPoint x="500" y="279" />
            </Array>
          </mxGeometry>
        </mxCell>
        <mxCell id="lJbwwW_WX1DoQPfi_LCT-33" value="&amp;nbsp;launch execution&amp;nbsp;" style="edgeLabel;html=1;align=center;verticalAlign=middle;resizable=0;points=[];" parent="lJbwwW_WX1DoQPfi_LCT-31" vertex="1" connectable="0">
          <mxGeometry x="-0.1451" y="2" relative="1" as="geometry">
            <mxPoint x="2" y="1" as="offset" />
          </mxGeometry>
        </mxCell>
        <mxCell id="lJbwwW_WX1DoQPfi_LCT-32" style="edgeStyle=orthogonalEdgeStyle;rounded=0;orthogonalLoop=1;jettySize=auto;html=1;exitX=1;exitY=0.75;exitDx=0;exitDy=0;exitPerimeter=0;startArrow=classic;startFill=1;endArrow=none;endFill=0;" parent="UEzPUAAOIrF-is8g5C7q-175" source="lJbwwW_WX1DoQPfi_LCT-1" target="lJbwwW_WX1DoQPfi_LCT-3" edge="1">
          <mxGeometry relative="1" as="geometry">
            <Array as="points">
              <mxPoint x="430" y="316" />
              <mxPoint x="430" y="316" />
            </Array>
          </mxGeometry>
        </mxCell>
        <mxCell id="lJbwwW_WX1DoQPfi_LCT-35" value="&amp;nbsp;describe execution&amp;nbsp;" style="edgeLabel;html=1;align=center;verticalAlign=middle;resizable=0;points=[];" parent="lJbwwW_WX1DoQPfi_LCT-32" vertex="1" connectable="0">
          <mxGeometry x="-0.1692" y="1" relative="1" as="geometry">
            <mxPoint x="12" y="-1" as="offset" />
          </mxGeometry>
        </mxCell>
        <mxCell id="lJbwwW_WX1DoQPfi_LCT-1" value="RunRealEstateRanking" style="sketch=0;points=[[0,0,0],[0.25,0,0],[0.5,0,0],[0.75,0,0],[1,0,0],[0,1,0],[0.25,1,0],[0.5,1,0],[0.75,1,0],[1,1,0],[0,0.25,0],[0,0.5,0],[0,0.75,0],[1,0.25,0],[1,0.5,0],[1,0.75,0]];outlineConnect=0;fontColor=#232F3E;gradientColor=#F78E04;gradientDirection=north;fillColor=#D05C17;strokeColor=#ffffff;dashed=0;verticalLabelPosition=bottom;verticalAlign=top;align=center;html=1;fontSize=12;fontStyle=0;aspect=fixed;shape=mxgraph.aws4.resourceIcon;resIcon=mxgraph.aws4.lambda;" parent="UEzPUAAOIrF-is8g5C7q-175" vertex="1">
          <mxGeometry x="320" y="260" width="75" height="75" as="geometry" />
        </mxCell>
        <mxCell id="lJbwwW_WX1DoQPfi_LCT-3" value="RealEstateRankingWorkflow" style="points=[[0,0],[0.25,0],[0.5,0],[0.75,0],[1,0],[1,0.25],[1,0.5],[1,0.75],[1,1],[0.75,1],[0.5,1],[0.25,1],[0,1],[0,0.75],[0,0.5],[0,0.25]];outlineConnect=0;gradientColor=none;html=1;whiteSpace=wrap;fontSize=12;fontStyle=0;container=1;pointerEvents=0;collapsible=0;recursiveResize=0;shape=mxgraph.aws4.group;grIcon=mxgraph.aws4.group_aws_step_functions_workflow;strokeColor=#CD2264;fillColor=none;verticalAlign=top;align=left;spacingLeft=30;fontColor=#CD2264;dashed=0;" parent="UEzPUAAOIrF-is8g5C7q-175" vertex="1">
          <mxGeometry x="590" y="80" width="190" height="400" as="geometry" />
        </mxCell>
        <mxCell id="lJbwwW_WX1DoQPfi_LCT-25" style="edgeStyle=orthogonalEdgeStyle;rounded=0;orthogonalLoop=1;jettySize=auto;html=1;entryX=0.5;entryY=0;entryDx=0;entryDy=0;entryPerimeter=0;" parent="lJbwwW_WX1DoQPfi_LCT-3" source="2eGMusATND9MoII4XUgv-3" target="lJbwwW_WX1DoQPfi_LCT-24" edge="1">
          <mxGeometry relative="1" as="geometry" />
        </mxCell>
        <mxCell id="2eGMusATND9MoII4XUgv-3" value="&lt;span style=&quot;background-color: rgb(255, 255, 255);&quot;&gt;RankCommunities&lt;/span&gt;" style="sketch=0;points=[[0,0,0],[0.25,0,0],[0.5,0,0],[0.75,0,0],[1,0,0],[0,1,0],[0.25,1,0],[0.5,1,0],[0.75,1,0],[1,1,0],[0,0.25,0],[0,0.5,0],[0,0.75,0],[1,0.25,0],[1,0.5,0],[1,0.75,0]];outlineConnect=0;fontColor=#232F3E;gradientColor=#F78E04;gradientDirection=north;fillColor=#D05C17;strokeColor=#ffffff;dashed=0;verticalLabelPosition=bottom;verticalAlign=top;align=center;html=1;fontSize=12;fontStyle=0;aspect=fixed;shape=mxgraph.aws4.resourceIcon;resIcon=mxgraph.aws4.lambda;" parent="lJbwwW_WX1DoQPfi_LCT-3" vertex="1">
          <mxGeometry x="72.5" y="225" width="75" height="75" as="geometry" />
        </mxCell>
        <mxCell id="lJbwwW_WX1DoQPfi_LCT-27" style="edgeStyle=orthogonalEdgeStyle;rounded=0;orthogonalLoop=1;jettySize=auto;html=1;entryX=0.5;entryY=0;entryDx=0;entryDy=0;entryPerimeter=0;" parent="lJbwwW_WX1DoQPfi_LCT-3" source="lJbwwW_WX1DoQPfi_LCT-23" target="lJbwwW_WX1DoQPfi_LCT-26" edge="1">
          <mxGeometry relative="1" as="geometry" />
        </mxCell>
        <mxCell id="lJbwwW_WX1DoQPfi_LCT-23" value="Start" style="strokeWidth=2;html=1;shape=mxgraph.flowchart.start_2;whiteSpace=wrap;fillColor=#FFF2CC;strokeColor=#D6B656;aspect=fixed;" parent="lJbwwW_WX1DoQPfi_LCT-3" vertex="1">
          <mxGeometry x="85" y="30" width="50" height="50" as="geometry" />
        </mxCell>
        <mxCell id="lJbwwW_WX1DoQPfi_LCT-24" value="End" style="strokeWidth=2;html=1;shape=mxgraph.flowchart.start_2;whiteSpace=wrap;fillColor=#FFF2CC;strokeColor=#D6B656;aspect=fixed;" parent="lJbwwW_WX1DoQPfi_LCT-3" vertex="1">
          <mxGeometry x="85" y="340" width="50" height="50" as="geometry" />
        </mxCell>
        <mxCell id="lJbwwW_WX1DoQPfi_LCT-28" style="edgeStyle=orthogonalEdgeStyle;rounded=0;orthogonalLoop=1;jettySize=auto;html=1;entryX=0.5;entryY=0;entryDx=0;entryDy=0;entryPerimeter=0;" parent="lJbwwW_WX1DoQPfi_LCT-3" source="lJbwwW_WX1DoQPfi_LCT-26" target="2eGMusATND9MoII4XUgv-3" edge="1">
          <mxGeometry relative="1" as="geometry" />
        </mxCell>
        <mxCell id="lJbwwW_WX1DoQPfi_LCT-26" value="&lt;span style=&quot;background-color: rgb(255, 255, 255);&quot;&gt;ValidateInputs&lt;/span&gt;" style="sketch=0;points=[[0,0,0],[0.25,0,0],[0.5,0,0],[0.75,0,0],[1,0,0],[0,1,0],[0.25,1,0],[0.5,1,0],[0.75,1,0],[1,1,0],[0,0.25,0],[0,0.5,0],[0,0.75,0],[1,0.25,0],[1,0.5,0],[1,0.75,0]];outlineConnect=0;fontColor=#232F3E;gradientColor=#F78E04;gradientDirection=north;fillColor=#D05C17;strokeColor=#ffffff;dashed=0;verticalLabelPosition=bottom;verticalAlign=top;align=center;html=1;fontSize=12;fontStyle=0;aspect=fixed;shape=mxgraph.aws4.resourceIcon;resIcon=mxgraph.aws4.lambda;" parent="lJbwwW_WX1DoQPfi_LCT-3" vertex="1">
          <mxGeometry x="72.5" y="106" width="75" height="75" as="geometry" />
        </mxCell>
        <mxCell id="lJbwwW_WX1DoQPfi_LCT-37" value="" style="shape=image;verticalLabelPosition=bottom;labelBackgroundColor=default;verticalAlign=top;aspect=fixed;imageAspect=0;image=data:image/svg+xml,PHN2ZyB4bWxucz0iaHR0cDovL3d3dy53My5vcmcvMjAwMC9zdmciIHdpZHRoPSIxMDAuNjA0NjdtbSIgaGVpZ2h0PSIxMDAuNjA0NjdtbSIgdmlld0JveD0iMCAwIDcwLjQyMzI2OCA3MC40MjMyNiIgdmVyc2lvbj0iMS4xIiBpZD0ic3ZnOCI+JiN4YTsgIDxkZWZzIGlkPSJkZWZzMiIvPiYjeGE7ICA8bWV0YWRhdGEgaWQ9Im1ldGFkYXRhNSI+JiN4YTsgICAgJiN4YTsgICAgICAmI3hhOyAgICAgICAgaW1hZ2Uvc3ZnK3htbCYjeGE7ICAgICAgICAmI3hhOyAgICAgICAgJiN4YTsgICAgICAmI3hhOyAgICAmI3hhOyAgPC9tZXRhZGF0YT4mI3hhOyAgPGcgaWQ9ImxheWVyMSIgdHJhbnNmb3JtPSJ0cmFuc2xhdGUoLTEwNC4yMjc4NSwtNDUuNTA3OTIzKSI+JiN4YTsgICAgPHBhdGggc3R5bGU9ImZpbGw6IzAwMDAwMDtzdHJva2Utd2lkdGg6MC4zNTI3Nzc3NSIgZD0ibSAxMjIuOTk0MDEsMTE0LjE4OTg1IGMgLTQuMzI4OTcsLTAuOTQwNCAtNy41ODA0NCwtMy40Nzg0OCAtOC43MTI1MSwtNi44MDA5NSAtMC43ODkyMSwtMi4zMTYxOCAtMC42NzY4MiwtNi4wNzIzOCAwLjMzMzYzLC0xMS4xNTA1OTggMC40ODUwNywtMi40Mzc4MzYgMC44ODE2OSwtNS4zNDc4NDMgMC44ODEzOSwtNi40NjY2ODggLTkuOGUtNCwtMy43MTgwOTggLTEuNzExMDYsLTUuNzM1NDE4IC01LjEwMDEsLTYuMDE2NDYyIGwgLTEuOTU0OSwtMC4xNjIxMTYgdiAtMi4zOTI2NTUgLTIuMzkyNjU3IGwgMS44NTIwOCwtMC4yNTA4NTUgYyAyLjcwMjQzLC0wLjM2NjAzMSAzLjc0NDQxLC0xLjAyODM4IDQuNTc2MjksLTIuOTA4OTg0IDAuNjExMjEsLTEuMzgxNzI2IDAuNjg4ODQsLTIuMDY4NjQ4IDAuNTA1NTIsLTQuNDcyODY5IC0wLjExOTEzLC0xLjU2MjI0NCAtMC41MzUyNywtNC4zNDg1NjggLTAuOTI0NzcsLTYuMTkxODMyIC0wLjk4OTU0LC00LjY4Mjg2OCAtMC45NDgyMiwtOC40ODU0NzEgMC4xMTcwNywtMTAuNzczMTYzIDEuNTY4NjIsLTMuMzY4NTg5IDUuNDM3MDUsLTUuODU0NTUzIDkuOTMyNDgsLTYuMzgyOTAzIGwgMS45MzI5OSwtMC4yMjcxODUgdiAyLjUxODAxNSAyLjUxODAxNSBoIC0xLjI5OTczIGMgLTEuNzcxODYsMCAtNC4yNDk3LDEuMjYyNDEzIC00Ljg4MzUsMi40ODgwNTQgLTAuNjA3OTcsMS4xNzU2NzQgLTAuNjU0MDUsMi44NjQxNDYgLTAuMTU4MzQsNS44MDIyMjMgMC43ODM0Myw0LjY0MzUwOCAxLjA0NzA3LDkuMDk4MzQ0IDAuNjc1OTIsMTEuNDIxNjM2IC0wLjQyNDY0LDIuNjU4MTQyIC0xLjk3NDc3LDUuNzk2MzI4IC0zLjY3OTEsNy40NDgyMzYgbCAtMS4xODAxMiwxLjE0MzgxMyAxLjYxNDk3LDEuOTgyNzUyIGMgMS45OTA1MSwyLjQ0MzgwMSAyLjc2NDU4LDQuMTQ4NzQ0IDMuMjQyODQsNy4xNDI1NjEgMC4zNzgzNSwyLjM2ODM0MSAwLjA4NDQsNy4yODI2NzMgLTAuNjcwNzIsMTEuMjEzOTgyIC0xLjA1MzU5LDUuNDg1MTQgMC4xNjIzLDcuNjUxNDEgNC42NjIwOSw4LjMwNjEzIGwgMS42NzU2OSwwLjI0MzgyIHYgMi40NDc4MiBjIDAsMi43OTIxMSAwLjE3MDg2LDIuNjk3MDggLTMuNDM5MTcsMS45MTI4NiB6IiBpZD0icGF0aDQ1NDQiLz4mI3hhOyAgICA8cGF0aCBzdHlsZT0iZmlsbDojMDAwMDAwO3N0cm9rZS13aWR0aDowLjM1Mjc3Nzc4IiBkPSJtIDE1Mi4yMzA0LDExMi4yNDkzMiB2IC0yLjQyOTg3IGwgMi4wNDk2OSwtMC40MjMzNiBjIDIuMjYyNzYsLTAuNDY3MzYgNC4wNTQsLTEuODYzNCA0LjQ1ODQyLC0zLjQ3NDc1IDAuMTI3NCwtMC41MDc1OCAtMC4xMTI2NywtMy4xNjM5OCAtMC41MzM0NywtNS45MDMxMSAtMS4zNzE4MywtOC45Mjk1NTIgLTAuNjExNCwtMTMuNTM3MDQyIDIuODU0ODIsLTE3LjI5NzQ1MiBsIDEuNDgyMzcsLTEuNjA4MTggLTEuMTEwOCwtMS4yNjUxMiBjIC0zLjk3ODU1LC00LjUzMTMyIC00LjY2ODg1LC04LjU1MjIwOCAtMy4xNTM2NCwtMTguMzY5NTQ3IDAuNzYzNDIsLTQuOTQ2MzA1IDAuNzY0MDksLTQuOTk0MzIyIDAuMDg3LC02LjE3MzYxMSAtMC43OTcxMywtMS4zODgyNzggLTMuMjgzODUsLTIuNzc2MDMzIC00Ljk3NDM4LC0yLjc3NjAzMyBoIC0xLjE1OTk3IHYgLTIuNDY5NDQ1IGMgMCwtMi44MTEwNTcgLTAuMDU4MywtMi43NzM4NDYgMy4yNDU4MywtMi4wNzI3ODggMy45NjQ1LDAuODQxMTc5IDYuODA0NDgsMi44NTMyNzIgOC4yNzc4Nyw1Ljg2NDc3NSAwLjg0NTQ0LDEuNzI4MDI2IDAuOTcyNzUsMi40MDAxMzYgMC45NDkxMSw1LjAxMDg4OSAtMC4wMTUsMS42NTgzNDkgLTAuMzU3NTgsNC42ODIwNTQgLTAuNzYxMjUsNi43MTkzNDYgLTEuNDk4NjcsNy41NjM1OTQgLTEuMzY1MSw5LjU3NjIwNCAwLjc2NTQsMTEuNTMyODE0IDAuOTg5MTUsMC45MDg0MiAxLjY0MDEyLDEuMTcyNzQgMy4zNzAzMiwxLjM2ODQ5IGwgMi4xNDQzOSwwLjI0MjYxIHYgMi40MjM4NyAyLjQyMzg4IGwgLTEuNjc1Nyw3LjFlLTQgYyAtMi4xNTE3LDdlLTQgLTMuOTMyMywwLjkwOTI0IC00LjgzODY5LDIuNDY4ODkgLTAuOTUxOTQsMS42MzgwMyAtMC44OTIzOSw1LjIwNjc1IDAuMTczNjQsMTAuNDA2OTUgMC45MDY0OCw0LjQyMTkwMiAxLjA1MjUzLDguNDU4NDUyIDAuMzg4MiwxMC43Mjg3NTIgLTAuNzAwNTksMi4zOTQwNiAtMy44MTk5NSw1LjI5NjA5IC02Ljc0NzQ1LDYuMjc3MTggLTEuMjYxMTgsMC40MjI2NiAtMi45Njc3NSwwLjg3MDk2IC0zLjc5MjM2LDAuOTk2MjMgbCAtMS40OTkzMSwwLjIyNzc1IHoiIGlkPSJwYXRoNDU0NiIvPiYjeGE7ICAgIDxwYXRoIHN0eWxlPSJmaWxsOiMwMDAwMDA7c3Ryb2tlLXdpZHRoOjAuMzUyNzc3NzUiIGQ9Im0gMTMxLjc0MjM5LDEwOC4yNjU5MiBjIC0xLjAyMTYzLC0xLjI5ODggLTAuODcyOTQsLTMuNTM2NTIgMC4zODA4NywtNS43MzE4NSAwLjkyNzc2LC0xLjYyNDQ2IDQuODA4NjIsLTYuOTQ4NTQ5IDcuNjEwNjYsLTEwLjQ0MDk0OSBsIDEuMTMwOTQsLTEuNDA5NTggLTEuODAyMTMsLTUuMjI1MjMgYyAtMi4wMjE0NywtNS44NjEyMyAtMi4wMDk4LC01Ljk3NDY3IDAuNjU1ODEsLTYuMzcyMjUgbCAxLjQ2ODM0LC0wLjIxOSAxLjY0MDc2LDMuMzUwNiBjIDAuOTAyNDIsMS44NDI4MyAxLjc2OTgyLDMuMzUwNjEgMS45Mjc1NSwzLjM1MDYxIDAuMTU3NzQsMCAxLjc3NDg5LC0xLjc1NTQyIDMuNTkzNjgsLTMuOTAwOTIgMy4xNTkxOCwtMy43MjY2NyAzLjM1Njg4LC0zLjg5MTY1IDQuNDI1OTEsLTMuNjkzMzQgMC42NDU1MiwwLjExOTc0IDEuMjE4NTgsMC4wNDY1IDEuMzU0MzIsLTAuMTczMTYgMC4zMTgxOCwtMC41MTQ4MSAxLjIzMDgzLDAuMjQ3MDQgMS4yMzA4MywxLjAyNzQ2IDAsMC4zMjAwOSAtMC40NTQzOCwxLjEzNDA5IC0xLjAwOTcyLDEuODA4ODggLTIuMjY3NzEsMi43NTU0OSAtNy4xMDQxNyw5LjI3MTU1IC03LjEwNDE3LDkuNTcxMyAwLDAuMTc2ODUgMC45NzUwMiwyLjQ1MzAyIDIuMTY2NzEsNS4wNTgxNiBsIDIuMTY2Nyw0LjczNjYwOSAtMC42NTgyMywwLjk4NDU5IGMgLTAuMzYyMDMsMC41NDE1MiAtMC42NjIzNiwxLjEyNjAzIC0wLjY2NzQsMS4yOTg5MSAtMC4wMDUsMC4xNzI4OCAtMC4yNzc2OSwwLjQ4MzcxIC0wLjYwNTg4LDAuNjkwNzMgLTAuODMxNzQsMC41MjQ2NCAtMS40NDY1NiwtMC4xMTU0MSAtMy45ODk0LC00LjE1MzExOSAtMS4xNjQxNywtMS44NDg1NiAtMi4yMzE2MywtMy4zNjQ5MSAtMi4zNzIxNSwtMy4zNjk2NyAtMC4zMTMwOSwtMC4wMTA2IC0zLjc5MTEsNS4xMzE5NjkgLTYuNDc5NTUsOS41ODA2MzkgLTIuMzcwOTMsMy45MjMyNCAtMS45Mzg4NSwzLjQyMDQgLTMuMjY2MTQsMy44MDEwNiAtMC45NTUzMywwLjI3Mzk4IC0xLjE5MzQ4LDAuMTk4NDMgLTEuNzk4MzEsLTAuNTcwNDggeiIgaWQ9InBhdGg0NTQ4Ii8+JiN4YTsgICAgPHBhdGggc3R5bGU9ImZpbGw6IzAwMDAwMDtzdHJva2Utd2lkdGg6MC4zNTI3Nzc3NSIgZD0ibSAxMzEuOTg1NjcsODMuNjc3MDkxIGMgLTIuMTUxNDgsLTMuODQ3MiAtNi4wMTgzLC05LjQyODI5IC03LjU3ODQyLC0xMC45MzgxNSAtMC43OTI1MiwtMC43NjY5OCAtMS40NDA5NCwtMS41NzQ5NCAtMS40NDA5NCwtMS43OTU0NiAwLC0wLjYwMTYgMS42MTY5NSwtMS4yMTk3NSAzLjE5MDU4LC0xLjIxOTc1IDEuNjk4MjIsMCAzLjQ5NTk3LDEuNDc3NzcgNS4wOTk3LDQuMTkyMDMgMC41ODIwOCwwLjk4NTE1IDEuMTU2NDEsMS43OTQzNCAxLjI3NjI5LDEuNzk4MTkgMC4xMTk4OCwwLjAwNCAwLjgwODczLC0xLjY1MTE2IDEuNTMwNzgsLTMuNjc3NzkgMS41NDY0LC00LjM0MDM5IDUuNjIzNTEsLTEyLjc3Nzk5OSA3LjIyNDUzLC0xNC45NTEyMjkgMS4zNzI2LC0xLjg2MzE2IDMuNDI5MzYsLTIuODY1MTY1IDUuOTAyNzQsLTIuODc1Njc2IDMuMjMzNzUsLTAuMDEzNzQgMy4yNDI2OCwwLjEzMDA2NyAwLjIwNDc0LDMuMjk2NjYzIC00LjYzNTk5LDQuODMyMzI3IC02Ljc2MzIxLDguODA5NjMyIC0xMS4yNTE1NSwyMS4wMzcyNTIgLTEuMjQ2MzcsMy4zOTU0OSAtMi4zOTAzMiw2LjQ3ODk1IC0yLjU0MjEyLDYuODUyMTQgLTAuMjMwMjIsMC41NjU5NyAtMC40OTgzMywwLjI4MDk2IC0xLjYxNjMzLC0xLjcxODIyIHoiIGlkPSJwYXRoNDU1MCIvPiYjeGE7ICA8L2c+JiN4YTs8L3N2Zz4=;" parent="lJbwwW_WX1DoQPfi_LCT-3" vertex="1">
          <mxGeometry x="130" y="100" width="50" height="50" as="geometry" />
        </mxCell>
        <mxCell id="lJbwwW_WX1DoQPfi_LCT-47" style="edgeStyle=orthogonalEdgeStyle;rounded=0;orthogonalLoop=1;jettySize=auto;html=1;entryX=0;entryY=0.5;entryDx=0;entryDy=0;entryPerimeter=0;" parent="UEzPUAAOIrF-is8g5C7q-175" source="lJbwwW_WX1DoQPfi_LCT-40" target="lJbwwW_WX1DoQPfi_LCT-46" edge="1">
          <mxGeometry relative="1" as="geometry" />
        </mxCell>
        <mxCell id="lJbwwW_WX1DoQPfi_LCT-40" value="/notify" style="sketch=0;points=[[0,0,0],[0.25,0,0],[0.5,0,0],[0.75,0,0],[1,0,0],[0,1,0],[0.25,1,0],[0.5,1,0],[0.75,1,0],[1,1,0],[0,0.25,0],[0,0.5,0],[0,0.75,0],[1,0.25,0],[1,0.5,0],[1,0.75,0]];outlineConnect=0;fontColor=#232F3E;gradientColor=#945DF2;gradientDirection=north;fillColor=#5A30B5;strokeColor=#ffffff;dashed=0;verticalLabelPosition=bottom;verticalAlign=top;align=center;html=1;fontSize=12;fontStyle=0;aspect=fixed;shape=mxgraph.aws4.resourceIcon;resIcon=mxgraph.aws4.api_gateway;labelBackgroundColor=none;" parent="UEzPUAAOIrF-is8g5C7q-175" vertex="1">
          <mxGeometry x="160" y="140" width="75" height="75" as="geometry" />
        </mxCell>
        <mxCell id="lJbwwW_WX1DoQPfi_LCT-46" value="NotifyClient" style="sketch=0;points=[[0,0,0],[0.25,0,0],[0.5,0,0],[0.75,0,0],[1,0,0],[0,1,0],[0.25,1,0],[0.5,1,0],[0.75,1,0],[1,1,0],[0,0.25,0],[0,0.5,0],[0,0.75,0],[1,0.25,0],[1,0.5,0],[1,0.75,0]];outlineConnect=0;fontColor=#232F3E;gradientColor=#F78E04;gradientDirection=north;fillColor=#D05C17;strokeColor=#ffffff;dashed=0;verticalLabelPosition=bottom;verticalAlign=top;align=center;html=1;fontSize=12;fontStyle=0;aspect=fixed;shape=mxgraph.aws4.resourceIcon;resIcon=mxgraph.aws4.lambda;" parent="UEzPUAAOIrF-is8g5C7q-175" vertex="1">
          <mxGeometry x="320" y="140" width="75" height="75" as="geometry" />
        </mxCell>
        <mxCell id="WWiUgjdW6wo9Rek2KwR2-1" style="edgeStyle=orthogonalEdgeStyle;rounded=0;orthogonalLoop=1;jettySize=auto;html=1;startArrow=classic;startFill=1;" parent="1" source="AB8S8MmQHIN8iAVKSJhB-1" target="jTYM3ZoHMfzBCkcCrma9-1" edge="1">
          <mxGeometry relative="1" as="geometry" />
        </mxCell>
        <mxCell id="WWiUgjdW6wo9Rek2KwR2-4" value="&amp;nbsp;request via&amp;nbsp;&lt;br&gt;btn click" style="edgeLabel;html=1;align=center;verticalAlign=middle;resizable=0;points=[];" parent="WWiUgjdW6wo9Rek2KwR2-1" vertex="1" connectable="0">
          <mxGeometry x="-0.0778" relative="1" as="geometry">
            <mxPoint as="offset" />
          </mxGeometry>
        </mxCell>
        <mxCell id="AB8S8MmQHIN8iAVKSJhB-1" value="User" style="sketch=0;outlineConnect=0;fontColor=#232F3E;gradientColor=none;fillColor=#232F3D;strokeColor=none;dashed=0;verticalLabelPosition=top;verticalAlign=bottom;align=center;html=1;fontSize=12;fontStyle=0;aspect=fixed;pointerEvents=1;shape=mxgraph.aws4.user;labelPosition=center;" parent="1" vertex="1">
          <mxGeometry x="77" y="-678" width="78" height="78" as="geometry" />
        </mxCell>
        <mxCell id="7-jYD9q1cmxNyFZY4TW0-2" style="edgeStyle=orthogonalEdgeStyle;rounded=0;orthogonalLoop=1;jettySize=auto;html=1;startArrow=classic;startFill=1;" parent="1" source="jTYM3ZoHMfzBCkcCrma9-1" target="uaZkST2R03m6mHmcRqh3-2" edge="1">
          <mxGeometry relative="1" as="geometry" />
        </mxCell>
        <mxCell id="jTYM3ZoHMfzBCkcCrma9-1" value="&lt;div style=&quot;&quot;&gt;&lt;span style=&quot;background-color: initial;&quot;&gt;https://www.&lt;/span&gt;&lt;/div&gt;&lt;div style=&quot;&quot;&gt;&lt;span style=&quot;background-color: initial;&quot;&gt;movingtophoenix.net&lt;/span&gt;&lt;/div&gt;" style="dashed=0;outlineConnect=0;html=1;align=left;labelPosition=left;verticalLabelPosition=bottom;verticalAlign=top;shape=mxgraph.webicons.wix;fillColor=#8AE3F2;gradientColor=#2451B0;aspect=fixed;" parent="1" vertex="1">
          <mxGeometry x="78.5" y="-460" width="75" height="75" as="geometry" />
        </mxCell>
        <mxCell id="WWiUgjdW6wo9Rek2KwR2-3" value="" style="shape=image;verticalLabelPosition=bottom;labelBackgroundColor=default;verticalAlign=top;aspect=fixed;imageAspect=0;image=data:image/png,iVBORw0KGgoAAAANSUhEUgAAA4QAAAOECAIAAAB2LGhsAAAAGXRFWHRTb2Z0d2FyZQBBZG9iZSBJbWFnZVJlYWR5ccllPAAAe2RJREFUeNrs3QeAZWVh+O1Tbp+6haUjvTdBQFBBVKRYABErGo0tmsR/TDRqjKZpsNdgj11Eo1JVei/Se1t63b6zU26/95zv3Fn0M7ZY2N2Zuc/jZZydxVnm3Iv3d95z3vcN0zQNAABgQ8jVlnzYUQAAYD1L00Z+4IBca/IixwIAgPUdo8lkFI/kwqjsWAAAsN51g7AQOQwAAGwoYhQAADEKAIAYBQAAMQoAgBgFAAAxCgCAGAUAADEKAIAYBQAAMQoAgBgFAAAxCgCAGAUAADEKAIAYBQAAMQoAgBgFAECMAgCAGAUAQIwCAIAYBQBAjAIAgBgFAECMAgCAGAUAQIwCAIAYBQBAjAIAgBgFAECMAgCAGAUAQIwCAIAYBQBAjAIAIEYBAECMAgAgRgEAQIwCACBGAQBAjAIAIEYBAECMAgAgRgEAQIwCACBGAQBAjAIAIEYBAECMAgAgRgEAEKMAACBGAQAQowAAIEYBABCjAAAgRgEAEKMAACBGAQAQowAAIEYBABCjAAAgRgEAEKMAACBGAQAQowAAIEYBABCjAACIUQAAEKMAAIhRAAAQowAAiFEAABCjAACIUQAAEKMAAIhRAAAQowAAiFEAABCjAACIUQAAEKMAAIhRAADEKAAAiFEAAMQoAACIUQAAxCgAAIhRAADEKAAAiFEAAMQoAACIUQAAxCgAAIhRAADEKAAAiFEAAMQoAACIUQAAxCgAAGIUAADEKAAAYhQAAMQoAABiFAAAxCgAAGIUAADEKAAAYhQAAMQoAABiFAAAxCgAAGIUAADEKAAAYhQAADHqEAAAIEYBABCjAAAgRgEAEKMAACBGAQAQowAAIEYBABCjAAAgRgEAEKMAACBGAQAQowAAIEYBABCjAAAgRgEAEKMAAIhRAAAQowAAiFEAABCjAACIUQAAEKMAAIhRAAAQowAAiFEAABCjAACIUQAAEKMAAIhRAAAQowAAiFEAABCjAACIUQAAxCgAAIhRAADEKAAAiFEAAMQoAACIUQAAxCgAAIhRAADEKAAAiFEAAMQoAACIUQAAxCgAAIhRAADEKAAAYhQAAMQoAABiFAAAxCgAAGIUAADEKAAAYhQAAMQoAABiFAAAxCgAAGIUAADEKAAAYhQAAMQoAABiFAAAxCgAAGIUAAAxCgAAYhQAADEKAABiFAAAMQoAAGIUAAAxCgAAYhQAADEKAABiFAAAMQoAAGIUAAAxCgAAYhQAADEKAIAYBQAAMQoAgBgFAAAxCgCAGAUAADEKAIAYBQAAMQoAgBgFAAAxCgCAGAUAADEKAIAYBQAAMQoAgBgFAAAxCgCAGAUAQIwCAIAYBQBAjAIAgBgFAECMAgCAGAUAQIwCAIAYBQBAjAIAgBgFAECMAgCAGAUAQIwCAIAYBQBAjAIAIEYBAECMAgAgRgEAQIwCACBGAQBAjAIAIEYBAECMAgAgRgEAQIwCACBGAQBAjAIAIEYBAECMAgAgRgEAQIwCACBGAQAQowAAIEYBABCjAAAgRgEAEKMAACBGAQAQowAAIEYBABCjAAAgRgEAEKMAACBGAQAQowAAIEYBABCjAAAgRgEAEKMAAIhRAAAQowAAiFEAABCjAACIUQAAEKMAAIhRAAAQowAAiFEAABCjAACIUQAAEKMAAIhRAAAQowAAiFEAAMQoAACIUQAAxCgAAIhRAADEKAAAiFEAAMQoAACIUQAAxCgAAIhRAADEKAAAiFEAAMQoAACIUQAAxCgAAIhRAADEKAAAYhQAAMQoAABiFAAAxCgAAGIUAADEKAAAYhQAAMQoAABiFAAAxCgAAGIUAADEKAAAYhQAAMQoAABiFAAAMQoAAGIUAAAxCgAAYhQAADEKAABiFAAAMQoAAGIUAAAxCgAAYhQAADEKAABiFAAAMQoAAGIUAAAxCgAAYhQAADEKAIAYBQAAMQoAgBgFAAAxCgCAGAUAADEKAIAYBQAAMQoAgBgFAAAxCgCAGAUAADEKAIAYBQAAMQoAgBgFAECMAgCAGAUAQIwCAIAYBQBAjAIAgBgFAECMAgCAGAUAQIwCAIAYBQBAjAIAgBgFAECMAgCAGAUAQIwCAIAYBQBAjAIAIEYBAECMAgAgRgEAQIwCACBGAQBAjAIAIEYBAECMAgAgRgEAQIwCACBGAQBAjAIAIEYBAECMAgAgRgEAEKMOAQAAYhQAADEKAABiFAAAMQoAAGIUAAAxCgAAYhQAADEKAABiFAAAMQoAAGIUAAAxCgAAYhQAADEKAABiFAAAMQoAgBgFAAAxCgCAGAUAADEKAIAYBQAAMQoAgBgFAAAxCgCAGAUAADEKAIAYBQAAMQoAgBgFAAAxCgDAzJFzCABgjgnDIAqzj5kgjHq/DKe/+IsPwRMfsr/S7D9PSNO1H6f/O+39cu0jmf5SmjquiFEA4FfEcRBFYRz1Pmb1GWXd2YvQtN1MG8203uw2GsH0J0m7nSZJ0E3SbjdIso/Z591eh2apGk03a/a/zb5PLhdmj/z0x2IhLBZ7H0uFqFwOc/mwV6hJ9p/sY+9bTX/D3nfTqYhRAJj7orXROV2NcRRmEbhqLFk91hmb6KwZT8YmutnH1ePdyalus5W22kG7nWQfW6202U47nV4yrs3Q7LOkF5G9wc7suwXT46Zrczar2zgOc3GYfZIlaT4fFvJPfCyXwqHBaHgwGhqIhofieaPRgtHc/JHsk7hUDKe/4RPftitPEaMAMHuF4f//8ZdfSZNg1erOI0s6jy/rPR5d2l66olOtZtGZPZJWK+h9Mt2d7U669qJ8+Msr9b96Xf6JD7/8r2npLz784qr9L6/Lp7+8Rh9O52kuyNo0v3bctBAVeh97kbrZotxmG/cemy7KbblZPvvKr/XoL76bpxcxCgAzMkDXjnpmiZjVZJaVnW46MZU88HD73gdbvcdDrTUTSZJkXw86nd7vdru/KM4n0rP3We+qejF8cv/RfjUos5hsT4+2TtWSNO2u7dTsT871xlODONf7mMuFC+fFW29R2HqL3HZbF7LH0ECUj3sjrNkj+3a9AdTp0VkQo8Bslb1nV8pRGAZB/w20ZD9xo9m76uplMAesvRoex2GWd+OT3aw+V6/p3nVv6/bF9TvvbS1d0V1bnL9ahmt/tTb+1n8xh8FvHVntvSx796G20uZ0tI5PJPc91P7lv62bb5Lb7imFnbYt7LJ9YdHC3NBAPDwUDVSibrfX1t2OAdP+PhNbc8/RjgIwy/6fKwwmp5Ibb2/0LkeGffbD927yC3fdobjxRrGBpdncoL2r2/lckEXbo0vbjy3t3P9w6677Wnff33ro0Vb2Gs8iNcvNaK4swJhMz5fqTM+d2nRRbqftCjttU9x+m/zmm2SP3EYLctkLu9FKO21V2mf/f5ZMFUePNTIKzMI38ih8dEn7PR9eniVp1GfLJWfv1aVi+KF/XHTkJoPZ+7oXw+ySvVyzBi3ko1VjnRtvby6+v3XPA63FD7TufaA1VUt6edqbJxTNyR88O4nK53vnkqvHk0uvrl9weS0L7m22KuywdX67pxR22Kaw6/bFrbbIp8l0lRr47ydiFJidPRoH80bifC7swxidrpnQa2C2vWKzZy2o1dNLr6ldfWM9y9DHl3UeW9Zpt9Pi9J2U2eu5X8pjetC3XAqzF3N2Vnn/Q600rW60IN5y0/zWW+T33r10wN7lLTbNZz3a7piVL0YBgD/VL+az965Q33ZX86Krqjfc2lg+1l091s0aNAvQUiEsF8N+Pj6F/BNnVlO15Ja7mrfc1bjk6tq8kWjn7YoHH1B5+j7lwUr0a7P7EaMAwP/RWLlcb9iv0UxWru5eeHn1vCuqjy1tt9u9afJR1JuxZGz713PkiflYYb2ZTk0vX3XFdfWhwfDAfSpHPHtgx20KpWKU5Xunaw6+GAUAfocsNEvFsNUOli5vL76/df4V1cuvrTUawS9X+tSg/6e16/kH0+tbrRpLzzx/6swLpnbeLn/UoYP77FHefJPeTPymm0rFKADwaxlaLkWtVnLzHY2rb2pcdGX1jnuaUdQbAY1jh+dP8cuCz9x5b/vG21dttij3nGcMHLRveY+dSxstiOv13k2lDpQYBYD+ztCwt+RttZFcfFX10mtqV15Xf/CRdqk0NyfFb7BYiYPBSrR6vPvtH42fce7k/k8tP3O/yqEHVhYtyNUbSafrCIlRAOhL5WJUaySnnTt53uXVOxc3H1/eKRfDkWEZuo6SNBwaDNud4NxLq1ddX//JBVOHHlQ58tDBBaO9C/emN4lRAOgXvVUzw6DVSX928eQPfzKx+MHW5FSai4PhQRm6zsXTxzlJgutvbdx9X/PM8yZf8NzBFz1vaGgwThLTm8QoAMzxEgqzDK3WkutvrX/v9Ik77m21WkkYBuWSmUnr+3ygUg473eD+h9uf/9bYmedPvfqYkWcdUBkdjtMk6HQNk4pRAJhj9RMGpVI0VU1uuK1+yhnj197cCILengu5nAzdkEkaRb1VtB55vPMfn125x47FE44bedqe5fmjcaOZGCUVowAwRxSLvQHRG26tn3bu5M8unmq1g35erH6mWTvvvlgIb7+3+e4Tlx/2zIFjDh/ab69SsRDVG4JUjALALA+dgUp074OtM87rZejDj3WGB6Ny0YGZifLTew389OKpn99YO+o5Qy9/4fB2WxdqdUOkYhQAZm3cdLrpd3685rRzp+66t5nLhSNDpijN9JOHwUo0VUtPPm3i2pvrL3vB8IufP5SLA8s/iVEAmE16N4PG4eIHml/49tg1NzWarbRcikJX5meJQj7M54L7Hmp/9htjl19X+6tXz9thm0KSBoZIxSgAzHRZceZz4fhk98zzp77z4/HVE904CkvuEJ2Fz2P2rLXb6ZXX1++6r/W6l44c/fzhUqn3FSuSilEAmKGyDA3C4OY7G185ec3VN9UL+bBgsvxstna6/ZqJ5JNfWX3dLY03vWreLtsXsx619pMYBYAZp1KOJqe6p5839bXvj42NJ8WCDJ0j4ih7hOddXl38QOuNrxh9wXOHstOMVluPilEAmBnC6f3l732w9ZXvjZ1zyVQYhkp07hkaiJYs63z486vuurf5+peNLtooX68n7gMWowCwgUVhb1+lsy+e/OK319z7cLtUCLNfOixzT5oGhULY7QannDl574Ptv3rNvP33Klfr5jTNgH8HHQIA+vddMOptHfnVU9Z86HMrH3i0XSkp0TkujnsTm667tfGBTyw/7dyJQj6MpdCGZmQUgH60dtb88lWdz3xt9SU/r3W7gSnz/fPUl0vZU9898aRVjy7pnHDsyMBA1Gq5hVSMAsD6EsdhVqK33tX4+JdW3X5PM58P49hR6S+97ZqC4CvfW/P4svZfnTB/i01z9YYeFaMAsB7e+bISLQTnXzr1iS+venx5t1I2INqnsie+VAzPPL+6YnX3794wf7cdS9WaW0g3ADdKANBPb3tR767BU06f+ODnVj6+vDNQUaL9LjsbufrGxgc+vuKK62qDA14PYhQA1pkw7E2p/sK3x/7rm2MTU8lAJbIZD5lyKbznwfa/fWrF2ZdUS6UwUqTrl8v0APSFOA4azfRzX1991vlTnSQoFkIlyq/26PJV3Q99dmWjkR757MEgSW1kv94YGQVg7ivkw2Yz/egXVp52zmSSBjnTlfgN2flJtZ5++PMrTz17IpjetwkxCgBPUmTUkg9/ftXPLqpGcRh56+N3yM5Sut3gk19Z9cOfTgShHl1fh90hAGAOKxTCicnkI19Y+bOLq6ViaPtHfr/pG4vDz35tdZoGr3jRSJak3a77OdYtzQ/AnBVHweRU8p8nrfzpRUqUP6JHkyT47NfHTj5tPO4tv+B1I0YB4E9KilY7/dgXV553WbVcUqL8EXK5sNtN/+ubq793xngUBZEJ9mIUAP4oa+/2+8zXV597Wa1YUKL80Qr5MEmCk74xdsZ5E3EcuNVYjALAHyo3nQ5f+u7YmedPRWGgRPnT5PNhpxt86qurz7tsKhc7pRGjAPAHiOPeNdbvnDp+yhmTSTc1oMWfdWKTC1qt4KNfWHXZtdViUY2KUQD4vcIwLOTDsy+e+u9TxlvtxNQTnoRUioJqLc169MbbGgNlu3aJUQD4nSUa5PPBTXc0PvP11ZPVpFhQojw54jhYtqKb9ejd9zftIitGAeB3vKWFweNL2x/5wqolyzuVst0+eTLl8+Fd97U++ZVVjy3tlFyvF6MA8JslWmskH/vSqsX3tyolY1c8ycIwKBbDK66rf+m7q6dqST6nR8UoAPxKKMS58Os/GL/6xkYhrxJYVyc85VJ0+rmTp5wxngYWexKjAPALlXJ0/mVTp54zmQZGRFmX2RQFxWL09f8ZP+eSSac9YhQAgjQNBivR3fe2vvDtscmpJLZTDuu6nMKg20k/9/WxG283DC9GAeh7xUK4ck3npG+vfuAR00pYT+I4XDnW/dRXV69c3XH+I0YB6F9hFHST4Mc/m7zoyt7u8w4I600hH952d+Okb40FQWpnJjEKQJ/K58Lb7mp8+0fj2Sdmk7C+X3756NxLq987Y7xSivSoGAWg78RxsGa8+5XvrZmYSvJu3WP9vwKjoN1JTz594rJrq+WSoBKjAPRdjIannzNx9c11Oy2xoRTy4ePLOl87Zc2S5W2vQzEKQB/JT9+x953TJgp2n2eDGqxE19zcu1ek00ljr0YxCkA/CMMwe+P/8slrxieT0PsYG1qlHP3wZ5MXXlULw8DNo2IUgLlvoBKedcHkDbc2DEQxI1oqCrrd9KRvrn5sSVuMilEA5rhiIXzosdZp50w2mmnsTYyZIZ8LlyzrfPG7Y0FgcFSMAjCH37Si7BGefs7k7Ytb5oswo+Ry4eXX1n5y/mSpKK7EKABzVKkY3nxH46wLqlmVGn9iRslekPVG+q0fT9z/cKtSClNHRIwCMMfEUVCvp+dcMvXQo217gjMD5XPhQ4+1v/b9sUYryMWOhxgFYI7FaBzedV/zzAsmBwe9eTEThWHWoOH5l9fOu3TKMvhiFIC59XY1fQ30tHMnJyYTY07MWLlcUGsk3ztj/P6H3dYsRgGYQ8IwuOeB5jmXVivlKHU7HjPYQDm69a7mmedNtdpppLPEKABzQ9afJ58+0e04EswC5VL0/TMnbru7aSlcMQrAXBDHwT0PtK65uW6/JWZHXUVBo5l8/QdravXEsg9iFIBZr1QIf3DWRKOReNNitsjlwqtvrF94edXKD2IUgNktnw/vuq91/S2NbjcIvK0zixorCr/14/FlK7vZJ46GGAVgtioXw7MumFq2qpPLeUdnNonj4KHH2t/64ZpiwcEQowDMToVCeN9DretvrXe6tlxiNknToN1JC/lwsprUaolp9b9HziEAYMYqFcOrb67f+2Cr6MY7Zo8sQ4M02Gqz/AnHjhz5nMHsK0niqIhRAGabOA7G1iTX39KYqqbDQ2KUWSBNg1o9GR6Mnvesgb982egWm+WbTeviilEAZqdSMbrlztq1N9UrZdc4mQW63aDeTPbepfTqY4YPO2QgDEIlKkYBmK3CMGg0kutvbSxZ0RkZsgEoM127k5YK4QkvmfeSI4a23iJfrSdJokTFKACz9/0pFy5d3rnsmlqpYFj0T7R239T0ib9+5eu/mf6/43zg1z7hdx3nrESfulvpja8c3WuXUqnYm7TksIhRAGa3rH8eXdK+7e5muSRG/7gw6iZpkgRR2FuiNZ8Ls6wvl8KNF8YLF+QWjMRDg9FAOSoUgrU7VbbbabudtVTQaHbHp5I148maie6qsW6WU51O2u0GnW72N6RJ2vuGURSaFf6ruknQ7aajw9ErXzx67OHDo6NRdtAaLs2LUQBmfYmGQbOVXnVDPTQo9wc3aLvTq8ZiIVwwLx4ZjjddlNtxm8Iu2xe237qwcH6uF5HpH7BrQDr9d4XBVDV5ZEknOx949PH24gdb2SdT1XRiqjs5lWRJms8Fdl3PXqL5OHj63uU3v2Z0jx1LWYa2WjJUjAIwN2I0COqN5LJrqoW8g/F/SNKg2UyTJN1q8/xWm+V33r6w317l3XcsjA7nOt3e0ObagdInlhb6w2IpS9uBSrTrDsXddyrGUa87xye6ix9o3X1/87a7Gw8+0nn48c7Ymm6hEGbt24fnC9nBrDWS7bYqvOSIwZceNVIshk0ZKkYBmGM1es8Drax48nZd+r3JWGukuah3t+IB+5Sftkd5tx2LI8NR1qatdjpVS/7Mb96dbtn29K+y7uz9KXuXs6/f91Drznubt97VvPaW+l33tqKodxtA/yRpo5nmc8HRhw294sXDe+9aqtaT7Gh7NYpRAOaai66qxnb0/t1avUhMDz2wcuSzB7IGfcoWhbQ3RJqMT6yTqTNJ0rsqnT2y6Nxy8/yO2xYOP2Tw3gdbWZJe8vPqVTfUsz89P9c3Jsh+xno92X6b/OuPH33uMwbLZROVxCgAc1SSpNfe3HAcfqtu0rvavvtO+de+ZHTfPcrzRqNut7fQerpehueyP6XV6t0cmZ0p7LBNIXsc8vTK4vub3z9r8qrr69nfEEVzcPb99LSwIB8HL3/x8AnHjGy5Rb7bCeoNA6JiFIC5KI7DO+9trl7TNXnpNzM0TdJFC3KvO370ec+qDFbiIMwydMMkUZL2Llhnz9HIcHzAUyt77lq+5c7Gt3645pa7mr2ZPbm5c+G+00mz1+S2W+X/6oTRp+9Tyce9pexTISpGAZir8rng+lsabffh/W9Z4RUK4TP3H3jra+ZttXkumV50aYP/U2VNlrVaryfi4Gl7lp662yY/uWDylDMnHnikncVoIRfO6mdx7c0J80ejow4d/IvjR0aG4uwr7Y5XphgFYE6LovCG2xrNdmr20i/VGsmC0fgvXzH6sqNG4jiYgTNmpic89T457qjhp+9T/s6p42dfXFu9pjNQma0Lk/aGP4Ng/71LWYYetE+lPb3qKmIUgLn+tpQLHl3SenRJJzD89ETlBY1Wuu2WhXe+Zf7B+w/Up2fKz+R/3kYz3XTj/HvetnDf3atfOnns7vtalUo066ai1erpooXRy144fNyRwxstyFWrdvYUowD0h0I+uu3u5mQ1iUyln9buBvvsXnzXWxbuukOxur5mKf2ZWq00joLDnz2wwzbFL3139XmX14IomC1bN/VmaLXTww4eePUxvZWbkqS3/r/XoRgFoF/kc8E9D7Ynp7pitFeinXTvXYvvf/vCrbYoZCU6i/7Ju0lQraVP2SL3T3+zcNutJr7xP+OdbjrDe3Tt/a+LFsavf9noc58xMH80bpioJEYB6Cth2Nsk/aFH2/VmOlix22S65y7F9/3Nwi03KzRm5ypCWcyVitFrjhvZZKPcZ76+as1EMjPvA167mWo+Hz73mZU3v3Le1lsVul0rN4lRAPpPViqPLmkvX9W13H29key4bSEr0a23LGRJN3t/kN6AaBgccejAwgXxif+18uHHO+XSzHpyO5200w122Dr/qmNHjjp0KEtTW8yvZ5FDAMAMkcsFDz/WWrGqk4v7+jg0m+m8kfjv3rBgp+2Ks7pE10qmJ9of+NTKB9+1aOst8rX6DLr0PVVLBirRcUcOfex9mxz7/OG1O6AiRgHo2xiNHlnaWb6qE8f9OzLaTdJiMXzTq+c9c79yrT5Hps6kvRXyk713K33wXRttv3WuOQMKO4vOqWqy7+6l9/3twn/6m4VbbJqrNUxUEqMA9LEw7K0xvnRFt1pLon59d+qNGabBIU+vHH/UcKMZzKXZM9mPkj2ze+5S/I93Ltp2q3xngy4d32z1iv+tr5n34fcuOvyQwXZnpi+YJUYBYN2/IUXh+GRn+YpOP8+jz+pz4fz4za8czXK8252DeVStpbtsX/zA/1u4aGHc3RADkdkJT/bn7rN76ZPv3/gNr5i3aGEuS+TEkKgYBYA4CtZMJMtWdXL9Pbf2hJeMbLV5fg7PoWk00113LL73bxYODoTrc2vNLO47nXR4MHrzq0Y/9s+L9t61lMV/s2lAVIwCwNo3pCgYG+8uX9nJ9esNo51OsPN2+aMOHerM9Tk03W5wwN6Vd755QbEQttvpeni+G400DMMD9y1/6l82ft1LRyvFqNNNDYjOEJZ2AmBGiONwfKK7dEU37tep9J1O+oqjRyrlKJnre0+mae9y+fOfNbhiVfdzX1/d7qbr7gykmwT1erLdU/LHv3DkJUcOlQphw2ioGAWAXxNOp8jYeDfr0Xkj/VijzWa69+7FffcoZ4eiH3b9yYI7O/14xYuHH3qsderZU3H0xGvgyXxRZUe13dv26bijhl72wpE9dynW6km9mdraS4wCwG/RaierxrpR2Kep0OokL3re0ML5uWazXy4et1pppRT+9WvnP/xY54bbGoV8+OQ++dV6svN2hb84fvSQAyoDlXhyKllbqMw07hkFYMPLKqTZTFeO9ek1+lY73W6rwi7bF6Mg7asnvd5MF8zLveON8zdZlHuyVg+Y3mK+981fdczwx963yRHPHizko7o1RMUoAPzeLgmbrXTV6m5/rjCahfi+e5a23iLX6vTdz55l4s7bF9/4itFCIfzz709o9/b2THfYJv/h9yz6+zcu3HTjXKvV+4p/xWYyl+kBmAExOr0O+Yqxbh8uMtrtBgMD0V67lEaG4vHJfhzAy3rxBYcO3r64eerZk8XCn/gCSJLeJk8bb5Q74pCB1x43OjoSd9qpCBWjAPCHxWjUGx1c3ZeX6dvddIctC9Pb0PfxCyAM3vTKeXcubt55X6tcDP/YiGxOL8v6jKdVTjh2OPvYaKZtOyrNHi7TAzAzmqyTTkz248hop51utnFu+6cUOp3+va+xmwSLFsRvfe28Sjn8ow5Dmva2mF84P3776+ef+J5Fz9xvoN5IEyEqRgHgj3s3CoNON5ispf3WollLFfLh1pvnKwNht7/n2HS66YH7VF561PAfPtkoSXqLsx7+7IFPvH/j1710ZGggqtaF6OzjMj0AM0K7ndTryUClv0ZJspwaHIy23jLf7fT7C6DbDXLF4PgXDN18Z/2m25vlUvT7j1sWnRvNj9/4itFDn1EZGYybLQOiYhQA/uQmS4OpWj9ON0nTdKAcb75JrtNRUr37hrfeonD8C0bue2hloxHkcr/1iGXnLWmhED7nwMqbXj262cb5YHq/e0dPjALAn9FkSTAxlfThgvdZWpVL4SYL813rYE6r1pLDDx684rrq2RdX4+DX79rIMrTTDXbatvCa40YOP3ggnR5PRYwCwJ+rm6bVWrcPd8fJYrRYDBfMj7vWwpyWpEE+Cl53/Lyb72gtX9X51T3ra410eDA86tDB1xw7+pQt89Wqy/JiFACeDL0B0TRot4Kw/4ZGs5wq5MKhwWiqamj0Cc1mutO2xeOOHPrid8aeKNSktzb+/nuXX3X08CFPH8heJpN9OY4uRgFgnTVZ2lvaqT9DfKAS6qr/fVB66fmSI4Yvuqq6+P52p5sOVqK/fPm8Fz1vaMtN87VGkrWpIzaXWNoJgBmh3U37sDCyH7lYiOwU9JsnJ4MD0euPH81KdJ/dS5/6l43f8PJ5Gy/MTdV6JcocY2QUgBkQH72ZKH05MhoEcRwGYvQ3ZBn61N1LH3vfoqfuWh4aDLtJKkPFKACswxptt/u0whPzcH7rkemtMxA9c79K1qDtjuMhRgFgHesmaT/eB5gGnc70ACm/rUet3NQP3DMKwIwQR2EfjhAmadBoJpEYRYwCwIaVi/v0B2+00k5fTt4CMQrATJGlWBz3aY612+lk1aqZiFEA2KD6M0azBm210zXj3cilesQoAGzQGA36cLnNLEYbzXTVWDf2howYBYAN2GT5XNSfP3i9ni5d0enbuxRAjAKwgaVpEIVBqRQE/bf4exSF1Xry6JJOLidGEaMAsIGEUVgph324xU5W4bV68tBjvRX/zWFCjALABorRMKiU477diWjZis6yFe2cK/WIUQDYUDE6UO7TLdrz+fDxZZ37H25nn3glIEYBYEPEaBAU8mG+L/eozuV6MXrfg+2+XfYfMQoAG1g6vR1opRx1+29wNAqDejO9/Z7Gmokk520ZMQoAGyBG094A4dBglCb9eKm+XAqvu7X+4KOtfMH7MmIUADZAjQaFQjg6HKdJP/70hXz40KOdW+5s2qQeMQoAG6JFsxjNB6PDUTfp0yNQLITnXTa1cpXV7xGjALD+YzQICrlwZChO0j5d3ymL0Rtub9xyZ1OKIkYBYP3XaJrPh6MjUdrt32OQ5fjJp09M1RJX6hGjALB+WzR44p7Rbtq/ByGOw1vvapx3WTU7FF4SiFEAWH+SJCgWo40W5Lr9XKPTa45+58drHlvqzlHEKACsX1l9zR+Jy+Uw7eMcjaLg0SWdr35vdRz11h8FMQoA60k3CYYGowUjuU5/D47GcXjBFbXTz52slCM3jyJGAWA9SdN0aCBaMD9Kkr4+DnEc1Orpt340fv1t9XLJ2zRiFADWi6xBh4bi+aO5bpL2+aEoFsL7H26d9I3VS5Z1ikWjo4hRAFj3ukkwMhgtnBd3Og5GMFCJfn5j45NfWTlVTfI5PYoYBYB1LEnSkaFo44W5Pr9M/0uDA9F5l9c+8eVVrZY9QhGjALCOpWkQRsGmi+KhwbCbOh49xUL4kwurH//yyk4njbxjI0YBYJ3qdIJNFuUXjMZJR432hGGQi4OzLpj6yBdWNppJPm+AFDEKAOtMt5tuulFu3mjcdaX+V3o0DMOfXlj910+tXL6yUy5Z7wkxCgDrRqcTbLpxbnQo7rhO/6tv1VFvr9QLr6j+88dX3Hpno1KOXLJHjALAk6+bpCPD0WaLcrF3p98wUImuubn+/k8sP+uCqWI+jGOHBDEKAE96j3aDHbYtDA1E5tT/mjQNhgeihx7rfOTzKz/z9bFGIy24hRQxCgBPrnY73XHbwvBQbOn739qjpWJYqyff/tGad5+47I57m6VS6BZSxCgAPHkx2kl32KYwNBilWvR3yOXCOA6vvqnxrg8uO+X08VY7LRTCSJIiRgHgz5ckwfBgvOWmebeN/r4376i3BOnYePLxL6/+wCdW3LG4uXaSkyODGAWAP1enk+6xczFfCA2O/p9JWsiHl11T+7t/X/qtH40vXd4ZGojiOHDYEKMA8OfEaLD/XqVcbJzvD5L16MRk+umvrf7Ax5efdu5kmgRDFW/uzCY5hwCAGaWbpFtvWdh0o9wDj7TNzvmD3svjYKAcXXtL4457W5f+vHr8C0f226vcaifdrmODGAWAP14UBfvuWcpi1KH4A2XVPlCJOp3g3MuqN9/ZfOZ+lVcfO7LlZrkk6c3Bd8MDM/rfd4cAgJkmi6cD9i5LqD9WLheUS9HqNd0zz5966z8t+dJ3x1au7mRln89ZAQoxCgB/jB23LYwMhRYb/ZOSNIziYM1E8vXvj7/5PUt/cObE48va+XxYLEhSxCgA/CHS3k2QBz5toN1Wo3+K8Bc72q8c637kC6v+4YPLTzl9/MFH2pVSVCwKUsQoAPxeSRCUStGz9it3OmL0z3ubD4PBgeiBh1sf/vyq931s+Re/O/bQo+2hwciipMwcJjABMPOkvYrafuvCVpvnl67o5HPK6c+Sz4fZ4857m9nj/MuqBz2tfPTzh7bZsmDGPWIUAH67bjddOC9++j7lU86YEKNPinKpt8nq4geaDzzSuvDK2kH7lo49YnjbLfNJasY9G5LL9ADMyBhNgpHheJ/dS3Gkk540YdhL0jgOH1/aPvXsqbe9b+m/f2blXfc2s/TPij9n0j0bgpFRAGaoTifdebvC7jsVb1/cKpdU0pOZpPl8mBX+VC05++LqBZf3Ltwfc/jQTtsWF87PpWnaaqdOABCjAPS7djvddsvCvnuUb76zOT1BnCc1SaerNMr19rK/6KraRVfWDtinfNgzB/bZvbTNVoUkCRrNRJIiRgHoX0kaxHG4316ln12cWzOe5LxlrTOFfJh15xXX1q+4prbnrsVnPK3yrP0re+xcnE5So6SIUQD6Va2R7LdXeYdtC1kk5XLmOaxDYRhUylmShrfc2cweZ19S3XvX4vOeNXDg3uXs91oWfEWMAtCHkiQYGoyevnf5ptsa3W5vIXfWfZL2Jt0//Fj7oUfbV1xb33ar/IsOGzp4/0q5FJp3jxgFoO/U6unzDxk847zJBx9pR5E7R9dTkhYLvQv3aya719/WveWu5jc2yb3wuYPPfcbAgnlxsRhlJwbdriblyeEcE4AZLYueTRbGz9q/ElttdL0naS4O87lelT7yeOekb655w7uW/Nc3x26+o1GtdSvlqGgbJ8QoAP2g2QpefNjQ8EDoAvGGqtIoCnK5YGIqOfm0ibe9b8mJn1951gWTS5d3hgaicsnqpPxZXKYHYKZLknTLzXLP3L9y1vlVc+o3bJWuvXP0pxdUz7+s9tTdSgfuU3rGfpXddyx1ummzZd49YhSAOarbDY5/wXAWQO1uahhuw4rC3qyyLEmvu6Vxw22Nn15U3X2n4pGHDu6/ZzmMgixJHSLEKABzTZoGW29ROPzZAz/66WSpKEdnRJJOLwUVPPho+8FH2ldcV9th6+ILnzdw8AGVUjEK0iAx754/8LXkEAAwK2K0WAyPPmxweLA3lZsZYu28+0IxnJhKrr+1fuJJq9/wriXfPW186Ypu9jRlv5WLnTkgRgGYEzqdYNutikc9Z7BaTxyNmZWkQW/efS4Xdrvpw491TvrG2Ovf+fgXvr36pul59wPlsGDePb+by/QAzA5Jkg4NRM8/eOD8y6urxrrWFZqJVRqunXofVmvJN380/qOfTR5yQOWQp5f33q281Wb5Zit1RyliFIBZrN5I9tqldOShA9/8n/E0taLQjK7SwUqUJMFPLpw6/4rqU3crHfDU8qEHVnbattjqpM2mJEWMAjALJWkQR+Gxhw9feV3jvodaZjLNcFEUDA70kvTqm+rX39r42YVT++xReuFzB/fYudRNgk5HkiJGAZhtao1k+60LRz1n4Csnt7PKsVv9rEjSgen97u9/pP3QY+1LrqnvuVPxmMMH9929HMW9+03NuxejADCb1BvJcUcOX3Rl7Y57mgW71c8SYRiUir2loMbWdC69pnv1jfUdty287IVD++5RHhmKoijsdNJEkvbn6YpDAMDs0u0GA5Xo9cePVko2CJ19SZqLwzgK2p301rua7/3Iir/9wNLTzpl8+LF2Lh/aWVSMAsDs0G6nBx9Qfv7Bg82mDZlma5XGcW8h0nsfav3bZ1a86z+Xfe37a25b3My+kp1pSNK+4jI9ALNSkgavO370+tsajy1tW1l9FodIHA4NxA883P70f6/+yQX5g/atPPeZA0/bo5xO34/h+IhRAJipMZoEm2+ce+PLR//lkyvSKDCWNqsVCr2F8R96rHP/w+MXXVXbZ4/Si543uN9e5W436HbdiiFGAWDmSdOgk6TPPnDgBc+tn3r25OCAG89mvd4MpyBcvqpz9kVT19xY32Pn4stfNLz3bqXsRCOdPv1AjALADDI9kyk84diRu+5rLr6/XS4ZHZ31sqewkM+SNBifTC67tn7tzY2n7l589bEju2xfHJheRd/qpHOP80gAZrFmM91lh+JfvHSkUg7bbcdj7iRpHAe5uDfp/qrrG3/7/qX/+skVV15Xm6p2ByuRW4TnGCOjAMxiaRDUaukRzx685c7m/5w1aY/QuValYZDrpUp48VW1y66pPfvAgSMOHjxg39K84XiqmliXVIwCwIaXpGmahG98xbzF97duvbuV9842FxWnF8w/++Kpy6+tPfNpvVW9Dj1ooJgLzbifA1ymB2DWa7XThfPjd7xp/sJ5kdGyuSoMezvdd7rB2ZdUP/S5le/80NKLf14t5G0JK0YBYAZkSqOZ7rpD6W9fNz8MUtsyzWG5uJek1Xpy6dX1f//0yn88cdmdi5txHMRxaGtYMQoAG1Knkx56UOWEY0aaLbucz/UkzYXFQjhVSy79eeP//duyE09a+cDDrSDsbenkpmExCgAbRpoG+Xz0qmNGnnNQpdFIjI/OeXHUm96UnXucfu7UW/9pyZe+O3bvg63i9Pr5Do4YBYANoNNJ58/LveONC/bcpWRqS58IpwdEq430yyev+cf/XPaN/1mzZFlneDCKY8dGjALAepc16FM2z733bQu22jzfbBkd7ZugCYOhgejhxzuf+urq9310+cmnjbfbaaWsc8QoAKx3U7V0t51K//hXC0aGo46dzftJsRBmAXrj7Y1PfHX1339w2UVXVvP50HR7MQoA61u9kRy0T+Udb5hfKkbdruPRR8Iw6G0c2g2uvanxb59e8W+fWvHo452sR+PY1CYxCgDrS5oG7W56+CGDb3vNaC4OjI/2mzievpG0np5zSfWt73v8e6dPjE9084XQVqJiFADWX49mjj1y+C9fMS/7pN1JjYz1XZL2BkSD8cn0M19b/Y5/X3rRldXstKRcsvyTGAWA9SJJshwJX/OS4ROOHemNlbaNj/Zl60RBqRjevrj1vo+u+MgXV962uDlYCXPm2s8YdvAFYC7rdNJCIXzLq+d1uukpp090u2nsQm1fyno0Ozn54U8mbrq9efRhgy85YnhkOLb+14w4W3AIAJjbms00nw//+rXzX3n0cBT2ioQ+jZ4oGBqIH360fdK3xt71n8t+fkOtWIjMtd/gjIwCMMeFYdBqpblc+NbXzA/D8AdnTWQ9KkH6VrEYdpPgulsai+9ffszhQyccOzI6Ene7qbOUDXaS4BAA0A86nTQL0Le8et6rjhmOY/OZ+loc9eba1xrpd08d//v/WHbtTfWsRG0iKkYBYN3qzWeKgze/cv6bXjlayIf1hh7t9yTN5cK77m2984PL/vuUNctWdAbKrtqLUQBYxz0aRsFrjxv9hzfNHxwIa3WXZvs+SeOg3Q2+fPLYez+y/PJra6VimM87RxGjALDOrL078Lijhv/5bxcumBfbv544CnqbiN7WeN/Hln/h22ONRlJ0yV6MAsC60+mmrVZw2LMGT3z3oq23yHfsF9r31m4iOj6ZfO374+8+cfld9zXzOT0qRgFgnekmaaud7rNH+cPvWbT7TsVuNzCZmmKhtznTz2+sv/ODy04/b3LtjvYOixgFgHVi7Z5M226VP/EfFx16UDnLU1s0kQVoIR+uWJ184surPv7l1ROT3VLR9qFiFADWmXYnWDg/fv/bN3rNS0ZyubDR1KMEubg3Uv4/Z42/98PLb72zWS5FhkjFKACsux5NS8Xob/9i/j/99YJFC+J6Q4/Su4u0Uop+fmP9vR9d9qOfjce9S/aOihgFgHXWo51ueszhwye+e6O9dinqUTLZi2BoMFqyvPvxL63+7NdXTe/j5aiIUQBYN7pJUGsk++xR/uC7Fh17+GC7naaKVI+mvVlN7U7wnVMn/u1TK5at6Fr1SYwCwDosj3oj3Wzj3D+8ecE737JgoBy2JCnTt5Dm4vD8y2vv+fDym+9olIqhjZrEKACsK1mA5nPhy144/JF/2nj3HYvNZtLpCNK+D6YoKBbDO+5pvvejy8+9dCp7hZjSJEYBYF1J0qDZSvfdo/SRf1p03JFDhbxZ9vSmNBUL4aqx7gc/t+r7Z42HvRFTPSpGAWCdqTfSBfNy7/2bjd791oU7bFOYrCYu2ZMFaLOZfvorY18+eazVSfK50ItCjALAOhGGQWd6lv2xRw596J0bHXvEULuddjoOTL+L495E+/8+ZeyTX149PpUU88ZHxSgArDNJElRryfbbFN7ztoXve/vCjRbEzZZZTXo0yOWiH/508qOfX7lqTbdgir0YBYB1J0vPRjMt5MKjnzf0uX/f5LBnVeI4tPaTHi0Vw7MvmfrP/1qxdHmnWNSjYhQA1qVON2130y02zf373y9611/N33LzXKdjO/v+rqgoKJeii6+qf+hzKx96tF0qyioxCgDrUpr2rtonafDi5w195l83edFhQwOVaMrEpj42vWtoeNUNWY+ueODhZqloPpMYBYB1r9lKt9gk//63L/zA3y08aN9yrZ60DJH27SlKEJSL4XW3Nv/zpFUPPdrO2tTJiRgFgPXRo+1Oevghg//xrkXvfMuCjebH1iLt9x69uX7i51c+/FinUnb/qBgFgHUvSYLJqWTBaPyqY0Y+/a8bH3P4UPbFbjcwMNafSqXo5zfUP/KFlY8uMZ9JjALA+tLqLT6abr918V1vmf+p9y/aY6dCkvQGTSVpvwnD3nymy66tffIrq1as6hasP/qHyTkEAPBnyrqz3U6jKHzaXpXddymddf7kD386+eAj7STtbSDp+PRVjw6Uo/Mvr44MRe9444JyObRLwv/JyCgAPHlJ2knjKHzF0aOf/peNT3jJ8Jab5aaqSfZFB6evDFSi086Z/Or31yTd3vJPiFEAWK/q9WSTjfL/8OaFH3znolcfOzI0EE1MJUniwPSRUik6+dTx75w6nnex/v/iMj0APPnand5to3vuUtpl++JzDqqcecHUORdXm63UVfv+EUXhf/9gzbzR6KVHDk/V0tAzL0YBYD2r1ZM4Cg54amXn7YpHPXvwB2dNXHldPQh7dxZKkzkvjoNmM/3KyWs2XZQ/aN9K9mJwTMQoAKxv3aSXpKVSuN9e5d12LN58Z/PbP1pz693N6QlPWa9o0rmskA+XLO9+/ltjG2+U22aLvJVofyv3jALAuk/Sbu/CfaEQPn2f0mf+dZMP/N3CPXctFYth1qndrkCZy8ql8KY7Gl/41urxySSfc+7xWxgZBYD1JE2D3kI/YXDEIUOHHDBwweVTZ19SvfnO5prx7kAlMu16rsqe3HMurW61Wf6tr5kfx70zE8QoAGxIjWaSRcnRhw8fetDAJVfXsiq9/Nr65FQ6OBC5l3TuCXubhUbfO2Nilx2Kzz5wwFi4GAWADS9JgmotKRaiow8beubTytfd2jjv0uqFV1Y7Xevkz0FR1Nup63PfGNvuKYXNNs5Z5+t/HRyHAAA2lE43nawmA5X4uc8YfPfbFp70H5u84DmDcdS7kpv1ig1F55J8Lnzk8fZnv7a627XMkxgFgJmk3UnrjSxJo6fuXn732xZ8+SObHnnowPBglMVoq50aRZszCvnwqhvq3zl1vFQSYGIUAGaYbre3Tn4uDrd7SuED/2+jL5646XFHDW29RT7orVeadiXp7BeGvROPU8+euuGWxkBZgz3BPaMAMIOkae/RStItN829920LH3y0dc6l1auur9++uDExlWYFE8cO0ixWyIePL+t844djO2yzqFKOWm23YhgZBYAZqZsEU7Vk043zbz1h3offs9F73rbwyEMHcvlgciqxNtCsViqGl19bP/XsySgKQnePGhkFgJms3U6zx/zR3Etf0FsH6o7FzcuuqZ13eXXF6m4xH1qadDbKnrU0Db572vg+e5R227HYaPb9AfGaAIAZrtVOJ6eSSjk66GmVv/6LeZ//0KZvf/28zTaO253e9CYznGadUjF8fHnn+2dOTEwlcd+3mJFRAJgdOp00e+Ry4TZb5rfabOTFzxv6+Q31H5098cDD7Wo9SZMg+y1XfWeLgXJ09sVTzzmo8qz9B7pJX985KkYBYDaZHgrtLVQ5OBA9/5CBww4euPbm+k8urN52d2PJsk67k5aKdhadBbJnMDt1+NoP1uy1a6lSjvp5TVkxCgCzz9p2WTuT6cB9KgfvP5DF6PmXV6+9pX7HPa1WPS2XI9d/Z7g4Du66r3Xq2ZNvePlordG/K+GLUQCY3VrtNHvsskNxr91KDz7SuvK6+pXX166+sTFZSyolo6QzWhiGPz578rBnDWyyKN+3e9Z7hQLAXNBophOTSdY0rzpm5J/fvtHH37/xq48eHqiEvdtJrWU5YzssDJav7Jx8+kS51L93+xoZBYC5o9VKs8fIUHzQvpW9dike94Lhy66unXbu5LIVT6xNaqB0RgnDIEmDK66r3XJHY9edio1GP543iFEAmGvanemdRXPhNlsUttw0/6LDhq68rnbGeZP3PdyuVpOsfvLm3c8Y2XPxyOPtMy+Y2m2nUhSmfTixXowCwNz0xLz7IBgaiI46dPCIZw9ee3P9rAumbr27uWRZJ/vdYsGy+RtedlYQx+Fl11Sff/DA0/YsV2t9t2ysGAWAuSyd/qszfZX+oH0rB+9fuW1x85xLp264pXnHvc12Iy2b5LShFfLhA4+0L726tufOpWj6wr0YBQDmoGYrbQbBztsV99qldO9DrWturF96bf3qG2qT1XSwErlwvwFlpwTnXTZ15KGDO21bqPfZnaNiFAD6L0lb6Zab5rfbqnDoQQO339O88Irq+ZdXa42kmJekG0YhHz70WPuq62tbb57PnoK+WgDBuDwA9GmSTlaT0ZH44AMq//CmBV/+8KavfcnIyFCUpL219BOrQa13pWJ8xrmTq8a6cdRfJwRiFAD6V7udNhppsRjuuG3xra+Z/41PbPaWV44+ZYtcLg6zWu10NOn6k88FDz7aufqmvlsYVowCQL9LkqDXnWkwbzR+3ctGv/rRzd7xxvn77lEaGoinaklbkq4vuXxw1oVT7XbQV0Oj7hkFAHrWzrtvttJiITz+BUMveM7g5dfULvx59fpbGo8u6VRKYT7vftJ1K47CO/4/9u4D3qrqQBf4Xrufenuj9yJVigjYsPcSuzFqNGZiEo3RTJIXZ17KvMzL+yXvTZKZZMZMjInRqKCI2BUEFQUFsYDS5dLhXm45bZ9d13prnwMIBpRy7+Wcvb+/R7wi4D377LXXt/paa32zNXKoxkKzxRPCKAAAAByYSplg5JkoCuefEZ8xPbbsw/ybS41X3sjxSBrRiSwjknYjSoWnX86MP0HPW2HpkEYYBQAAgIOnoqxBJVGYPjE6YbR+wYz4oqXGs/NyW3c6ikJEJNJuawksXWFub3Frq2XPC0UexZxRAAAAOCSvEEl5QjphqHbTlZW/+1+N9369um+j4nrMX3RPcYW6OpmJQment3CxoalhyfsIowAAAPAFeOgs7sTeWC9ffWHy/l80fu/rNQP7KpIkWBbzEEm7DiFCLs+WvGcwKoRkz1eEUQAAADgsjPmL7nn0jEXFqy5K/vf/afrOrdVjRmqK7Peeope0y8KZKGze5n60zgpJ5yjCKAAAABxxKrVtpqrkuksrfvvTxrtvrZ46IeJ6jEdSXJxjp0jC9hbn3RV5TQtFTsMCJgAAADjKSGrkaVQXb7i84szpsYVLjOdfzS79MK/IRMUmUMeAiMTI0Q9Xm6m0J0n+gVgIowAAAAAH53osnWWVSenqi5LTJkbeWpZ//NnU+maH51Ecc3/UNIWs/cRe84k1/oRIPuhzcjFMDwAAAMfKdljOoPU18mXnJn7948a7vlpdVSG6bvB79bqJopBN25wNm2w5BN2GCKMAAADQZZHU9VhttXzjFRV/+EWvK86PJ+OiZTNE0iNFiMCj/LpPnHSGikEPawijAAAA0GUYEzyPOS6rr5V+9O3aX/yP+lNPiigKKe4MBYdPVchHa83WNjfwR15hzigAAAB0veLWpBNG66NHNDw/P/vkC5kPV5u6JiqyH1jhi8OoKqzaYO9sdfv3UYL9TtEzCgAAAN3FshmPGldfnPzfP6z72rWVmkJy2P7pMCMaIUaerd5g8WsY7KVgCKMAAADQjfwDRXO0by/lW7dU/58f1Z84Wrcdhs7Rw6GpZMVqi8d3EWEUAAAA4FiYJqNUmDoh8qv7Gr7ypQpZ9veEQiL9fIpCVq+38yYL9i5ZCKMAAADQEzyPWTZLJsQ7vlL1L/fW9+ulOA7Otf88kihs3+W2trvBfpsIowAAANCTkdRf23TalOj//ecG/iNPqLbDsDv+oRBR+Hit7dEgdyIjjAIAAEBP4wG0f2/lf32v7tZrKmWZmDZG7A9OEoUVa8xgb9SKMAoAAADHQd5kuiZ+48aq+75dW5kQHRd59GBBTSQfr7UZC/KCeoRRAAAAOA54urILc0YvPiv+s+/VN9TKOKjpYJdJaE95bR0ewigAAABA1yvOGZ06IfLz79f1aZIdB5fkM1lUoJR9ssUO8IJ6hFEAAAA4nhgTHIeNHa7/7N66/n1l08J4/QEoFTZsdkT0jAIAAAB0Vx4tLGkaPVz78Xfq+vVS8iY2fDowjDY7YnAjG8IoAAAAlEQezZvsxNH6fXfW1NfIFtbXfxpG2catdoBPCEAYBQAAgFKRzdGpE6P33F4d1UmwN9c8AkTIZmlbhycGdKgeYRQAAABKSM6g55wav/mqSrEwnRSIQByXbW9xJSmYbxBhFAAAAEoID6Cux66/rGL65JiLzZ6Ke2DZbGerIwU0tSGMAgAAQGmhVNA04ds3VzXVSTY2wy9syLqrFcP0AAAAAD3F84Q+TcrXrq8SWNgH63kCdRxhR4srY5geAAAAoGf4AZQIM6ZGZ0yLZnJBPn/oi8Oo3zNKd7W6Qd33HmEUAAAASpHrssoK6YrzkvW1cshPrmeMZA2aN2kgdxtFGAUAAIASZVp0ynj9tCnRkB/LxDOoZbNUOpjTRhFGAQAAoER5nqCp4tnT4011oe4cJUSwLJbK0kAuYUIYBQAAgNJlmHTaxMiIIaoX4m2e/DBqs0wWw/QAAAAAPYtSQZHJGSfHEjHRC+uR9TyMmhZLZTBMDwAAANDj8hY9Y2qspkqiYT0gtBhG0+gZBQAAAOh5lAo1ldLoEZokhnSHJ5EQx6VGHnNGAQAAAI4H22WnnxSVZRLaRUyuy/ImIwijAAAlgjJcA+jqGlEUwryzeonzPDZmhK6pghDKss/vTMf1F9QH8h5FGAWAssRoqN++hId3V8dQTSWe5w8HI4+WaJFnQiIuDhughvZoUMdleT+MBrEA4v4GgDLsJRA8ylhoKyUiiBIR0DfcRXSNyDJ554P8b/7U/vFaS9dQM5bqjU+EkUM1GsqCz9+75zHLooEMozJubgAowzAmhHrHQf7sxsO7K4iiEIuKq9dbz87PPvdqdu0ndluHO2ywGtXFkB8+WbKf15CB4e0Z5UXfsgXqUB5MA3YR8DwDgLKMY6btj6gKoRxR5VWRJKJj9FhFdDGT9R5/pvO5+dmP11uaSprq5Vffyk2dGL307ETw6vsghFFCBvRReENUkUNa8B2XOo6AMAoAUApZVLBtj4UyixbrIEnCxMZjivL8Oi5cnHt4dmrFGtN2hFhELE4V5f944LHOCaP13o1ymHvfS1YyISXiomWzEG7xRApbXAVylgJmxgBAWT6VTSu8U0b525cxZ/SoYqgi+xFm41bnx79uve+XLe9/bDKB6BrZt2hJUciu3d6DMzuQREuzJSZLQkNteLe+98NoENduomcUoOTqSwwOHk4PgWkJIV6/JEgS7oIjw1OmSIQdLe7zCzKPzU1nsoyI/k8e5FfKwrw3jOkTc+eeFjdtlMaSSqOMN8MqEhKjjiCFseRTxmgQ19MjjAKUUAyN6CJj/rbGuBpfeK3SWY964e0alUWCu+QwiaIQ1cX2lPfaEuPROalVG2xNJZ+T5vnd5Xrs/kc6Rw7T+jQqFvJo6WTRQjMsERdDu81wsWc0eDu7IYwClEJrX1AVoijCm8uM1jbn0nOSQT1mo+viBclkQztS56clTcP9cVg0hRBJWLgkN/vFzOtvG57HeJPvcG6wTdud+x/u+Mnd9ZJIPByxUEplPxoRwzkqsmfOKGVScdYzwigAdKF4TNy2w3lkTuql13KiKIwaqg/oq2Jnmc9PY34YpX6nV/jaLns2JGJISF90k0R1cc1G69GnU2+8nd/R4sZioqqQw/y9IiHzFuVOHJW+9pKKrIFLXUIfqxzaOSrET6KUYpgeALr0qcrbt64nzH4x/eic1Lpmp9j2ffip1E/uqeM/j8mjhyISoaPT9TwmiiScb9/vHMJ98Hl5hWRy9K9Pdjz7ambLNlcsjO0eWe0oC3mLPTQ7NXKoNmqYnjcpLmxp5DF/FVpIn43MbyORIK5dRBgFOD7489T12LqN9h8f63xrWZ5/rSqksI0ce3NZ/o13jNNPjuUM1H+HeCYzoSNNaVgvjz+9WCNoqxwkpot+DOUh8s1lBi9Z65stfw6MSo5u0ktEE5u3OH+dnf7hHUosJroYrCiJPOYfRBTaWUz8jROcwAQAXVDqZCJLwvYW99l5/qrenMHE/Vb18pC6s9Wd81LmxNG6ruIYmIMHjlTG85eVhLVCikQIEQWGpsr+lbQgaJpo2XTlWvNvc9IL3srxn5NEcow1dzQivrgwO2Kw+pUvVYj+WmZc6ePfELXdEN/nfhglQuD6RhFGAXr0OcLrtlyOzl9kPDS78+O1tqYdZFUvjxqLluZffcu47OyE66L/67MkiexocU07vL0jsQg2djoAb8upClm30X5+QfaJ59PZLFVV0lVllhfSPz3eOXiAcsrEKHZ6Ou4oFfIGDWfZL24m4E+ZDdxtiDAK0FOFTRJ0XXx3RX7ms+l5bxiWTXkwPXjYEomRZzOfSU0aozfUyraD+u+z12dXq5fPUzGsp3bEoziv5NOwGIuKHSnv8bmZp17KrNlg81LWVUm0SCRC3mS/eaCjfy+lqV5xPZTH4/lxey5LZTwxnGGU7RlYcwJ3IgPCKEBP4LVjR6d3/yOdL76Wbd7q8Bga+9wFKNEI+XCVxX/xDZdVYBv8vwujQstux7QYCWvXaCyKfZ0Kd4LfS0Reei0767n08hUmb7bFY90S02VZ2LDZ/vcHO356bx2//TBYfxzjKG8MtHZ4YkjTqD+PS1ZE2w3aHB2EUYDubccXe+/mL8o+9ERq7UbH81iiUF9+YXWma+Lf5qROmRQd2FdxcTLhgclgR6tr5KkY1jBaWRH2YXperPhrfbP9l1mpdz7It3V6uiryJlw3tidlsvDt3ENPKnfcWJUP81G0x/eJKgiWTXe2uJIUxrLPiksO5AB2TyCMAnQX/xRsIjRv8dfLv/GOYVlMkol62M9QSRI6U4xH2PvuqsXF/IxtO13DZPGwdhDWVIY3jPLKmBDW1u7NfjE7+8V0R8rjbZKo3u3zFnj29VzhsbnpPk3KpeckeFsIefQ4pDHGtu/yeOM8nMfhikTQtWAup0cYBeh6/EGpqf4im5dfzz08O9XW6fFgqihH/AThLeBXF+dmTIueOT2WtxiGZgvXlrR10t0dXpivRnUowyiPg7rqn+q5eLnx4MzODZsc/9wyueduBP7/Smfp/Y90NNXLE8foJvpHexxlwppPrHBOFuc3G69EInoQdxlFGAXocrGIaJh03qLcY0+n3/kgH9EP99CXv+dvO+oIf5qZmjAmEosSD4P1hXVgm1rctnYvnON0e8JoVejCqK4T12VvvmvMei69cIkhi0RTj8MNoGtk01bn1w+0//z7dTi2/rgEspVrrLDOF+XNIX/6ViDXECCMAnQZSfKPH1y5xpz5bOaFhdm8yQ61Xv6I/sy1G+2Hn+r87m01mRw2lvT7BrZsd1p2u7Ic3jAaqmF63vyIRHixsp56Mf3Sa7n2Ti92/DYT4DEgHhPf+8j89R/bf/LdWp4MPBTKHsQfqivXWiFdvUQFVRXjMULRMwoAh6KqxDD84wfnvJzZtNXRVNEfTzlmhAjUY8/Nz06bFJ08NhLyM5lIYax28w67pc2Lx0O6vRHPQzWh6Rnlaa8z7T4ws/PFBbkNm/x9eWPHe1srfv0TMXHhYuM/ajrvvb0am130YGufrFyTz2RDuskoZYxXK8m4GMiT5xBGAY41LBafjIuXGQ88nlq13rJs1rX1JY+521vcvz2VGtxPjUdDfSaTKJLONG3e4lAhpKcv8dwT1cmx97iXfrHirQ5e6b70eubh2f42FI7jF6vSSSG8VD79coan0m/cWMWbi9jsqQcosrBwcc7zhJDOGRUETSGJmIQwCgCfeTgSxti2ne5fnkzNfzNX2Iad+Ksdu1pEExcszp00PnLtJUmPCqE9k12WhS07nHUbbU0J6Rg9D6O11ZIU3MqYx01erGyHrdlgPziz8+33TdvurmJ1jN8n9YTH5qZiEfGr11TwJiKmdHdzQ1Ro7/SWr7QoZeEcpudlX9NIMiFSzBkFgCKeBlSV8Ifj/EXGg7M6d7a6qkK6bxYjfxATQh55KjXuBH3YQDW0yyaKB4Gu32irYQ2jvCZualBkiQRyaJiXKR4zNm9z585Lz3o2bZj+hNGSnRwsSYJtsz/P6kzExGsuSVo2RR7tPrGo+PTLmbZON6QTRoujIhFSXYmeUQAo0FXC26aLlhqPPp1etMzQFLEHFvZqCmne6vxlVuqf7qqV5TB2jvI6yLTox+vsTI5WJEO60aZHhV4NUvA2WeTNragutrS5r76Ze3Ruel2zHY2ISslXUDwoZw36+7+2x6LkorMSpsUoBuy75/YwDPraEiOTYxEtpGGUN3UiulhbJXkeekYBwo0Qfy3t6vXWE8/7C3t3d3g9dko4K5xI/tIb2XEnaNdcnAxh56go+l3RS5bndT28J7PzrNOrXpaDta0Vb8sxJrz4WvapFzOLl+dJ4VYvm6apRjpS3r890M4D0/mnJ0wbm492w6MvJj47P7tyraWEeA8NkbCKhBiLial0ALsiEEYBDpeqEtNif57Z+fQrmTUbbF6D9nCV6Z8FJ5EHZ3WOGq6NGKS5XrgqPd4S2LrT/nCVGdox+kIYFXo1KpJEgvHp8wAX0cjK1dZf56QWv5vnjY1opMwOeS0Mnoq7271f/aHddoWLzozb2Hy0SykSae/wXnk9y3+Mx8K7h4aiiPU1MgvomBjCKMAXZ6Di4s33Vpp/fLTzvY9M22HHq8qURGF3m/e7P7f/8r4GTQvRNvj8atsue22J4VIhxFnUvw51tf4wvVvmHz0vUzxSd6a8+x9JvbAgt6vVFSUhFi3LqMGDQrF/9Dd/bHMcevl5ScdB/2hX9gK8ssh4/R3/AJHQXgR/x3tFaKiTg/rMRxgF+NwS4o8KsV2t3qNzU8/My+Tz7Lgv7FUU8u5K6w+PdtzztRpe44Vn8mg2S+ctMnQ1vFGU10O11XJUF8s66EiFGJrJ0jeXZR98Ir1pi10MHOW+eaSqkFSW/cefO1yXXXNxhesKYRu76KarunWH88RzadtmXbJzc/mmUf7kr6uRvIBOSkYYBTg4/yBsTWzv9F5/O/fnWaktO9wSWdhbqLPZ3Jezwwaql52bNPI0DH0wikxefSvb1uGJ4e0c8cNNU50U0cp1KT2/dSO6mDPoex/n/zYntWhZXpZIkE7SUmQhm6O/+3Mnb7V++YoKHqRsB3n0GB7ChWPY576SWfahWaa95l2WRZm/hrV3o+JhmB4gPIp9n0vey896JjX/LUOSSEkt7OVVeCrj/fffOgf3U0cN0w0z4L2jPMSYJnvmlWzIb0vPE/r2UnmtXI6dIzyZKQpZtc56+pXM0y9l+E3rn7IdvDpVJnmL/u6hjpZ2744bq2Ix0bKQR4823Ctk8XLj0adTgT/l4TDCKNM0MrCPgmF6gFDguSeqi1t2ODOfTT8zP9Oy218vX4IDiPyb3LjF+bcH2v/1+/VVlZIT6A4YXhXNejbF32/Ib07HZf37yH4YLas0WixTre3unJfSc+dlNzQ7/AMNZBLdl0c9KvxtTnp3u3f3bdUNdTKWNB0FSSLbdrm/+VNH3mRyiBfR7ytF9TVSRVLkVwNhFCDwjz+BUWHW86knnsus3mCLon8IdYk2lAvbnSz9IP9vf2z70bdrFYUEdfIor5PaOtw5L2cth4V5HX1xaL5vkxzRxFyellGZIgKZ+0pm1vPpj9dajisk4sHv5ZL8ST7k5ddz/Na99+s1IwdrJvLokRBFYln0139sW7fR1jWCC8Iro8H91ACvWEUYBfBPOS+u7f1onfWHRzvfX2nmDKqVw4oKXRNfWWTUVXd88+Zq/t0GcvJoVCd/fTK7ZoMVsM01j5TnsbpqqbZaFsrhMvh7UPCXRFattf74eOd7K81MjvK2REQPzVOF+Hl0+Qrrvl+2fuumqrOmx2yHhfYg3yNtwPCb5z8fbl+4xAhz+/MzzZtB/ZQAn6iAMAphxyOOKAmtu70nX0jPfiGTylD+KCyXtnixyn/ihUxdrXLtJUlKg1bbRSPkw9XW8wsyritoWqhvVI8KjfVyVYVU+mu0/Z3JibCjxZ31bOqZV7IZgxWWA4YuVfh5VCebtzs/+3XrJ5ud6y+tiEX9JU3Y9enzHsgy4XfLHx7peOL5jCQSUcQlKd5LZHB/lQU3jSKMQpiLt7+2N5X2lryXf3BW56p1/niQopTZu+APa1698Wd3RCdXnJ/goS0wh8UpsmDk2aNPp9ZttKPRsFdKrssa6+SqSomW8FBdoSEn7mx133jHeHh2qnmro6lECXc9o8o8gAr/9deODc32rddVjhisWjbDKfaHbsawB2em/vJkSmCCJOGS+FjhlLL+fVT0jAIEroZQCH/SLV+Zf/L5zAsLM7zdGdVJmZZ0WSK5PP31H9t5rX/pOQlbIAHIo/wTkWRh9ovpFxZkIxGCsTrHFXo3SLVVUsmuholH/cmsryzKzn4hs2ipoSkiZvvta/dqGnlhYXZds/3VayrOOTXOI3veorg6BzzHZEIp+9PMzj89nuKRVJJwefagVBg2UPEb5AijAEGqGGJRcWeLO/O59DOvZLbtcqO6KJZ5Meft5qzh/er+NpEIF52VZEygZd6IVhRh2Yf+kVeCPxUh7NVS4cxJ0q+3qhXOpC29GOHfgR+sMmc+l5n3RjZr0FgEw6ufxR87zVudn/+2bflK88YrKkYM1jI5iiH74u2tqsTI09//tePJ59JEJJKIJLp/GGVjR+rFXVcRRgGCoDg1/pl5mUefTn+0xhIK3TnBeJpHdDGTY7/8Q3s6R6++sIKV83om/jFt2eb86r/aWju88t3jvQu5Lmuokwf0VRy35K6FopCOTu/Rp1MvLMzypp2mECTRz2k0up7w5AuZFausay9NXnJ2QpFJCX6mPSyik03bnH9/sH3BYkORMU/078KoJ/AwKknE8zBnFKD8YyjPNM1bnAce61i8fM/a3iA99Qp5lORy9PcPdba1e7ddXymLpByP65BlgX////LvreubbV1FEi2EUU+or5EH9FEdp9SKFXlufubhOanNW10eqhBDv/j2lgRJFz/Z4vy//25//W3j9uuqhg/xd+6gNIwLm/yzYWXy1rvGv/+5Y/V6S1NFJNHPJlEqVFRI/XoFfFsBhFEIw9PfXy/f0enNnZd+dI6/Xl4gwVzbywrnFzsOe+TpdHua3nlzVWVSKqPVu/7UOpXsaHH/5Te73//IUlUM1e2rkFhjrdi7Uc4ZpdW8EInA2wwbmh3etNPweR3Jfc5DxtvvmytW77r47NhVFySbGuTi8aEhiaQ8dKoyaU/525g8/FTKyPtL3zA3/GANUTZysBKNkGDfGQijEPCHfkQjeYu9+W7+T493rlxjKTIJ/ApNf/4rE+a+nNmyzbnrq9VjR+quy0p/KFAUCW8hrNto/+L3re+usJBs9m9j8KpoUD+t+MmWFI+yqy5MvvRaLp3FFppHXE4506KPPp2ev8i44bLkaVOi/XorhBD+k8GOpBFdtGz6zgf5Pz/RuWS5iS0XPodlsTEj9DI9BPjwST+8awQ+bAhmS0sm0Yj44Wrrgcc6/vOvndt3ujzrhKTlzd+mJJHmLc6S9/L8uT9isKYqYinvTynLfr/Ia0ty//ofuz9cZfEPDn0k+wU+oTIpXXFBom+jWoIfYiIuUcreXGagJ/uoi2rWYK8tMd5dado2S8TFpnqZR1U3iNs/8dwZ1cXVG6xH5qR/+2D7xi0heiwfXUOUZ9Bbrq4Y1E913aC+SVvWR6IxAsHE00xbh/eXJ9LPzMuub7biUUnXQ/fAi8fEXbv9JfYrVptfvqJixBAtZ5Rij4tWWEj74Mz2Wc9mdu12+beNeaL741GPB5TRwzXbKbneR1bYDPK802Nz52W27/RkVClH1xiT/NL6ySbnl/e3Pb8gO21i9KxTomNG6I7LbCsgpYG/R94w3rLdmTs/89LC3NqNdkQTMQDy+WyHDR+s9G5UAv9IxJMDgoZXjZJE5r+ZfeSp9Psfm7wMJ+Mh3TrZX9Kk+at3n3o5s2KNddm5iSvOS/CYzh9wJfIdiiJPouLb7xl/eaJz6YcmowKS6EFuaZEM6afWVcmleSS957HGOuX6S5M//4+2uIzlJ8fQKtOIysjqDTZ/vbIoO3aEdsEZ8cnjI7JIbLeMZwzyYi7LZFer+8y8zlffzK3f7HiukIjhVvlils3GjdQb6yQ36FsuIIxCkOpsf97htl3OA492LliSy+ZYwNbLH00eLaTziCQ2b3F+/1DH/EW5G6+omDoxqmk8qh63Bbz8QykOw2/d6Tw8O/XaEqO901P4h6UISKJ/36Lgt/HkcZGSnWXBv0P+YZ42JfbKImPZB/koFtQfg+KJ9vySbt3hbtvpvrXMHNBPOXNq9IypsepKqbAzHfFLLSv1klIs48VvdeMW+9l52dfeNnZ3eKbJNJWoiB6HgRbK/sihWkVCCvycbNwREJAYylveHSnvlUW5h57sbG2jhAg4/eXTGk7w95SmVFi13v6nX7WMGalfe3Fy7EitMin5Gx8WThBlPfUx8S8yWbpjt/PMK9mXX892pv1zaDR8WIduTvCLM3GsXspL0GyH9e2lXHFuYuUa0/X8AVk4xkjKCyb/vLMGXbnaXLXOemBm50njImdNj40coiYTUjzqb4HkeX7JLal1LZJE+KfPv/+cQVMZb9V665l5mfdXWnnbj6VSYZEiPt/D5Disf295cD/FcYP/ZhFGocyrauZX1bbNli7PPzy78533TUUhqAsP1VdRrOlWrLKWr2jhtdq5p8UnjNJ7N8l11TIrRAq3q0cDebXEA2hxEwNeOW3e7mzY5CxcknvjHcO0mCzhw/riNNq3Se7dIJf4lrGmyc6YFluwJDfvjZyMztEuakMWtv7w01s+zxa8lXvptWx9jXTyiZFJ4yID+qh1NRIvuXHdn4rD2yqee3yCaXEUXvWPlRc6Ut7OVnfLdnfZB/k3lhlbt7v+8JTkN0SLbwSOoI1nsyEDVP4qnYlVCKMAB6eqZNtO5/G56dkvZvImjeioBQ+r8tBUsmaD/cHHbbU10pRxkXEn6EP6K/36KL0aFJ4OeUPc9Vix3+Uo/nBJ9KMnD5qSQmyL8spp2w63eZuzer317gpzXbNd7CBRZFROh5NFBR4+Sr8u4jdMRUK8+sLkex+Z6TRVFHy4XdyokyQSkUgqw56Zn3vihWxDrTRyiDZisDKgr9qnUenVKDfUypouerxJWSi8/MduGu8ofjP8QcEzqCSTXNbbut3ZutNp3uqs/cT+cJW1fpMt+p27YkTHbXCUKBWiUTJ2hF5ZIaXSwd83DWEUypsikdY276XXs0aeYbLakV06hfCXYbDnF2SfW5Dt3SD376P0aVL691YG+KlUbqyTqyv9nhnKBEaFQqfLp9VbcTuW4t/8S3+KmOgfW5c1vJ2tXmu7u3OXu3WXy5sK23f5YXTrTtd1ma6TYJy/2nNhlLKpE6Nl8a1mc5Tn5nNOic1+MYsPrvtakrwhx185g731rrFgMdM1/zQEXn7ra+UmXop7+cG0sVZuqJP5L/OoH2soZZTuK8hHEFJ5piQi/6tYwEmhqenH3JbdfoneusPdtM3ZtsPZ0eJu2eHwgl+ccoMyfuwclw3oq0yfFM3nQ/F+EUahvOUtOmGMfubU2MznMsWFFHBEJGnPAva2Tn987a1l+WhUrEqKibjIa5RYVOR5tLpSTMQk/st43SZJfq+n5w8LUtcVCtvp8xTidWYob75nctSyKW8YGAbl0SSVpZbFpEIPSkQn2E7wSHkeGzZI69tbEcpkmM7xhFuurlz6gcmTioRA0s0lNyKJEd2PmH4W3O7wUsmbl5W88MZEXlp54a2pkupqpIYaua5GrqwQK+JSRVJMxqV9HZbsgH8UW5l7fuCFld9+vBSns/7sz7YO3sL0dre521u81jY3a/g/n87QzjR/DrDCVByBPzRQwrumCVqoy4YNUIcOUg0jFMdJIIxC+RdaQTh/RnzRu0ZLq4fBwaPDH3yKvGfcnFKhvdPb3e75/SisMK1TJv5OBZLfQeLnSeLXXuzTF/OoX2+5nt8B4/8Ssdih4v+ZKj6RY2DZwhknRyMaKZcpYzyX1NdIN19V+b9/txsfX8/gZY2XsmJB4+UxZ9BMlhdEvyD7SwYVUijaQrEU+5NnJP8LTSPRCOE/SiIp/iT/3X5B5s1Lj1kmM0xm2owWynWhdPvNTsdhjj8NoDBSL+7ppiUYi++Gei0eFU89KcrCcjoswiiUP9NkE8dEJo7WX1iQw9XogrqtMB63L6YWBuf9Q4AOvrXQ3n4U/lu0vYstoKsqJFUlk8bp/EfbLpsqiUeWs06JvrYksnCJgS3Ne75VWRy72P8ucni+dPz2o1CcaVMo0f7smuJvOLDQ7u0rPfCX7ZmVU1iP6E/vwZXuXpSx6kp5+uSIaYVlrzuMo0D519mFZeDXXlxRVSl5OB+7y6u3Qg20b1boZ19EKHaXYgS+61tZFm9l6U11Ci2ru7qwMap467WVVRWi42Db2OMfT4szPiVxz4EgxbGOfV2k0oElWtrzKw/8ZdKe/0oImps986mR6ZOiiZhEQ1OjIYxCEPCm/6jh2ulTohRhFILCsunJ4/W6GsnzyizSUcqGD9K+enVl9y3oBggqXmIiGrn0nLjrhajwIIxCINqRhc7RL1+RrEoSVH4QAK7LGutk3sRSlPK7pfk3LIrCxWcnTpsSy+Yoes0BDp/nsqkTIv37KKHqW0EYhYDg5bZ3o3L5eYkyml0HcCh5i00eFxk+SLOssqyReOOwqlK66cqKfr0Vy0KRBDjchhx/XXF+QgxZGw5hFIKDEHLx2cl+fRTMVIOy5lEhFhEnj43UVEmuV7Z5Ok9PGhe5/Ly4JBHMnwE4HJbNJo+PDBmghm2CC8IoBKgK91jvBvn6S5O2g5lqUMYcmw3ur0yZELHKuZufl0HLpl++vOLkCbrjokACfDHXZRecHq9MSjRkJQZhFIKjuFHw6VOiU06MZA2KZZ9Qlrcxfy5LwtiRGs+jVpnPOXE9QVXFb95U3btRdl18tgCfJ2fQCaP1E8fowp4tuBBGAcqT7bDeTcrl5yYSMRGVH5Qjz2XVldI5p8UtKwhvx3XZ8EHq7ddVEdQ2AIdGmb+j1gUz4v16ySEcScDjAYLGNOlZp8ROnxLFzFEoUzy9jT9Bs52ATLS0LHb+jNjl58YNg2FlPcBB5U06fpQ2Y1rMc8O4JwzCKASN6wmRiHjD5cleDRJmqkF54ZWQrolXnJfwz74Kys3LCluvf/Xqysnj9LyJIgnwWbSwZvGs6bE+jbLlhHG5H8IoBJBh0HEnRC6YEZdEbDsKZVYnDRmoTJsUDdgOZa4rNDXId9xU2Vgr2RiyADgQLxRD+qsXzYgbZkg3nkAYhWAyLXrDZZWD+yvluzMOhBBj7OoLk/ufLR6gIskmjYl87fpKWRIwZAGwX6kXIjq59Nx4dVV41/khjEIwUSok4uLXb6jSFFwMKA+8Hho6SJsyIRLI7vzCTk/CJeckrrwg6bkMO48CFHmeMHq4dvGZiXw+vKUCYRQCXMLZtEmRi8/BsgkoD6ZNr74wkYhJQQ1qHmWSSL52feX0yVF0jgIUaRq5/foqWSZhLhIIoxBkhJAbL68YPlgxcSAhlHgStdi4kdqUEyNioJ/Kls2qKqR7bq8Z1E/xMIUGUPAtduGM2LgTNNcLdSWFMApB5nmsT5Ny23WVqkIoRR6FEuWf1yCwKy9I9qoP+GG2hAh5iw3sq/zjN2oTcawvhFDjAbR3o3ztJRUk9Ge0IIxCwOt4x2VnTI1dcX48b+KMUChRRp5OmRA5ZXLUC0GTiRR6gyaO1u6+rabQYsTnDyGtnmybffnyZP8+ihf6vhKEUQg4XtUpCrn+0ooTR+kYrIcS5Lr+YrsLZySa6uXwbHvkUeGcU+Nfu67S9VjIByghtE3QM6fFeCkQmICOEoRRCD7LYgP7qTddVZFMiC6WTUCJcVw2cbR+1vSokQ/RzUmpIEnC9ZdVXHtJ0nGYh8X1ECamxRrr5RuvrKivlbGYD2EUwiKbo2dNj113SZJRtEGhhLgeq0iKV1+cjMeksA3V8ZZhRBe/cWPlOafGeB7FpG4ICV7SZUm45qLk5LERw0A7DGEUwsSyha98qXLa5CjmqEGJKKxbEs6eHps2KZoLZZ1kWrQiId379ZqJY3SeTdFQhBAUe3/y2KSxkesuTVo2mmAIoxAylLKITu76anVjvYQNt6E0aiWhsU6+9doKGtYGEiGCkWcNtfJ9d9aOGKyiYELgeUyorZK+eVNVLCo6Dq4HwiiEj+OyAX2Vu2+tliSs4YWSaCDdcnUFj2JhXsHD86hpsX69lB9/t65/74DvbAVhb38yQRKFf7ixcuRQld/2OI0FYRTC2ir12CmTY7ddU2ljzQQcV/k8nTYxcub0OO5DjpfHQf3Un9xT16cJR1RAcO9zm116duz8MxKhPYMeYRTAV1zDe9XFyYvOjJnYeRSOX/aqqpRuuboyERMxNl3kumzkUPV/3l3bq0EK1cYCEAZEEHIGHT9Ku+26KkXGcQ8Io4Ac4LLKpPStm6rGjtRMC0EAjkOLiFJ281WVY0bo6CDZp7gH+MQx+k/vqe/TJOdNVNcQlCRKBMOkvRrku2+rqatRsMMgwihAoYWap32blB/cUd27UcEeb9DD8iY9/eTolRcmeBVF0UNyYB7lGfSk8ZGf3VvXtxf2X4SA4K2sREz65k3VY0dqloMeEIRRgL15NJtno4dH/vEfauJRjJNCz7FsNrCfcvt1Vcm4xKsoXJC/z6NGnk4YpfM82rtBxkJDKHceFRRFuPFLyUvOTtgOY6huEEYBDowFdNqkyB03VYmigDwKPYDfZhFNvO6SijEjdR65cEEOlUd5ZB8zQv/pvfV9GmXHwdxuKNubuVDqzz89/tVrKl2PonGFMApwkDqPPyYuPTvx5SuSlDE8JqC7OS6bMT165QUJJNEvrMJ5Bh09TPv59+uHDlItC+czQVmyLTZtgv6dW2v4PY0J4gijAIfMo5JEbr2m6vLzkjwooH8UuklxN82xI7U7b6nmuQpdfYeZ3UcMUf/1+/UTx2imSSkCKZRVkc/l6egR2vfvqI1ECHZwQxgF+DyexzSN3HVL1bmnxUyLYkIPdAfbZr3qpe99vaamUkQSPXx5kw3up/7se/VnTI1aNsbroWySaCZHRw3V/unO2qZ6Gd0cCKMAX8yyWCIu/uAbNadOido4IBu6GvWYqpJv3Vw9apjuYjbIEVbqWYP2bpT/6c66L52fxPxRKIObtrCl6PBB6n131Q4bpGFTCIRRgMOt8PKmvwn5P99ZO3kc4gJ0JX85jiN85UsV550Rd1xs5XQ0xTNnsJoq6Tu3Vd9+Q2XxkgKUrLzFBvZVfvSt2jHD/a2scbsijAIcAdPiFZ7847vrxp+gogMGuiqJ8troivPiN11ZySgWyR19HrVsFo2QW66q/Md/qFE1ghIKpcmyWJ8m5ft31E4Yo+dxyB/CKMBRcFxWWy395Lv140ZqmKAGx55E8xabMS327VuqNZU4WEt7bFxXIKJw+fmJn323tqlBNrHEHkoMvyf79Vb+x7dqTp4QQRJFGAU4ep4nNNbJP/1e/eRxvF2LERY4epZFJ43R7729ujIpYd5Yl6DUXwo2Y1r8Fz+sn3KiX0LR2QyloLh2fsgA5X9+p/bkEyOWhfKOMApwbHhu6N0o/8u9dadO9lu36H2BI66ZCsvnhw5Sf/CNml4NioWTlrpUzqD+lvj31F97cdL1GDbNgeNe4DNZOnq4/pPv1p04Rkd5RxgF6BqmyRrr5Z/cU3/m9Chmp8GR4rVR/z7KD79ZM2ywyr8mBJekS6t+ImRztL5Guvtr1ffcXh3RMAUCjmvrKEcnjYv87J7aUcN09IkeHemHd43AVQD4e7x6S8bEk06Mtqe89c08kAqIFHCYSXRAH+VH366ZNCZiombqtjzqeYIii2NG6CMGqes32btaPUkiKKTQkygVXJedfnL0n79T1783b3liZteRY7asj0QYBTgk1/NPEj95QsSx2ar1Fn/oiCLqOjj0Q5V9mkRPGh/JW+hT7+YoULi8/fuoJ0+Idqa8DZtsnlB5JMWVgR6pIJgsk0vPSfzgm7WVScl2UNoRRgG6rbaTJTJpbETXxA9WmXnTf/rgssBBk6hp0UH9eBKt5UnUyKNm6qHLzgNoIi6ePiUW1cknm52OlMcLKbpIoVuZFkvGpZuvrLjjK9WSJOCMJYRRgG6v7URRGH+C3rtBXrHGak95qoKKDj6LN1ROGKb/4I7aKSdGcwbmifZ0IeXZf/L4yOB+amu7t2m7P4dURhcpdM/NlvNPBVPuvrX6mouTnocBEIRRgB6s6njUGDVUW7vR3rELXS/wqcIRQXTqxMgP76jljZasQXFvHBeOKwzqp0ybEFUVYd1GJ52haDdC1/Iob3bSKeMj991Ze9qUKLaj7qowSjrXXYZLAXCYmSOqi59ssX/zQPvr7xiKgsgBvlyenn9a7M5ba/o2yXkTVdNxxgMoEYXFy4z7/9b54cemrosoqNA1SdTf1JZdeUHy1usq62tkbETdNVmUZrXKKxBGAY6MppGOTu+xuamHn0pRSkRsjxZilPq70l5+XvzbN/s722N/wRIhSUSRhZY29/G56VnPZ0yTSRJ2w4BjCEzML+wVSfFbN1Wde1pc1wgKO8IowHEmS8SjbOES47d/at/V6soyImkY2TaLRcUbLk/edFWlKhOcsVRy5VQmnsdWrjH/8+GOj9fZ/PPCqD0cBcfhjRkyerj6nVurRwzRBCbgnAWEUYCSQIg/Grh6g/3bB9vfeS9PRAH1XKgYJhvYR779hqoLZ8R5ysExXSVbTiVRMG0285n07Bcy23bxpqOgYEMMODy8XFsWra6QvnRB4itXVkQjoovjFRBGAUpNRCedafrQk51PPp9JZSj/V1yT4NdPVMhb9OQT9W/fXD1uZMQw0UlS6kTCi6q4cq31t6dSC5bkMlnKUwVG7eHzOQ5zHOGk8fqt11ZOnRS1LYoOUYRRgJIsRUxQFX+C2sLFuQdnpd5bacaiqOQCi3+ypsVkSbjs3MTt11fW1cg4YKmM8ABq2ey1xbmnXsq+uSynKESVCT4/OKi8ySqT5OoLK666KNG7UcnkkEMRRgFKPqPwem7jZvvxZ9NPvZBxPUGWcVWCWT/1aZL/4ctV550Wk2WsYCg/kuh3kW5vcV97O/fonPSGzXYUa+3hQJQKtsvOmBK9/vLkhFERfntYDsM9gjAKUB5UlbgOW/J+/r8eal+z0VGwqilAPM8/+GDahMgdN1UPHqDwf3WxXKls+ZuyEWHrdue5+dknX8yk0v6h9iitUDxovneT8rVrK049OVaV9LvScbQSwihAmeH1Ga/V2jvch2annl+QS6U8SSYSKrnyjqH+4qTqSunLlyevvCCpqaJHsc112fMXNklEYMKW7fYjc9Kvv210pDyBYG1TSLmeHzorE9LZp0RvuqqioU7h/8rLPq4MwihAGddzvEpb+kH+oSdTH6wyszkaiYio4srvEcn8o1ZiUfHkEyO3XVc5fJDm4ty/4DUgeWlVxA9X5R97Jr18pVncqQ07Y4SotUkF06S1VdK4Ufr1lyYnjo04Doo5wihAUGiqP6fw6Zczc15Kf7TW5tWbqqKGKxuOK1g2PWGoevWFyUvPSWCGaLDx4imKwuLl+ZcWZt9ant++y43oBL2kgW9t5gwa1cWTJmiXnJU465SYwIjtoJgjjAIEiyT5qyU2brbnvpKZ+0p2R4sbjYiYmlb6VVTeYhVx8bJzE1demBgyQDXytHAMIAQZIUIsIjouW/phfsFbxrw3crt280gq8lIMwWNazKPs5PGRi86Knzk9VpmUeDHH9FCEUYDA4vWZ67LVG6xn52efmZexbSajx6VUuf68QXb2KfEvnR8fM1JXVdHENqJhwtuKvMWYy9E1n9ivv517YWF2205X10XMswkMr7BKafJY/ZKzExPH6n0aFdNmWI+IMAoQghqO+GvtDYOu2+Svlnhzac51iVA4GwZKAaX+USsCY+NO0G65pnLscD0RF20HC2nDG0lVxZ+YsavVXbTUePKFzNYdjuAvwfc7ULEVVPnFHVYs4AIR2dgR2vWXVYwZoVdXSKywsz2uD8IoQLhqOEn0TzBftd566MnU+x+bmQwlon/SPaq348XfpMljEZ3066XwKmrGtGhEI/5CWsRQFFiRv/jNwHJ5+ubS/JyXMs1bnXTW81x/cyjMtymPdiYrniwvJOPSsIHqdZclJ47RNYXwXEqxLQbCKEBo8dgpSvxFlr2ff/L59Iq19o4WRyREUxFJezqG5k1aVSEOG6idPyN+3mkxf0IF1svD35dZ4qdSQtjyFeZLb+Q+/MjcutPlCZVnGgXr7ku2gFO/gOsa6dtLGX+CfuGM2PgTIjx/8qYmyjjCKADsoapEJMLSD/KvLs69s9xct8nm9V1ERyTtdo7L8nlakZQmj9XPnB4759RYLCrmTcRQ+OIyqyqkeYu9cImx7IP8x+vtbTsdVRF5SxIdpaXDdphpsmRCHD1cm3Ji5Mxp0aEDNdtmWCmPMAoAB8FzZzF9frTWfutd4/Ulxvsfm/zfeWsekbQ7uDyGmqxXg3zK5Mi0iVFeUVVXyTnDw2J5OHyKQqIRsrvNW7nWXLnaWvqh+d5HJr+v+E/KEsrt8cs0TLBs5jhsyEB1ynj9xNH6xNGR3o2KaVHsy4YwCgCHE0lFStnWHc7qDdaCt/KLluUyOebvfYiqrUsedoLgucxx2fBB2gUzYpPGRgb2VSqSUj7PXByyAkeF507Nn17Mtu10m7c6S9/PL3zb2LTVkSX/bCc0JnsSpYLl0JgunjwhcsbU6PDBWt8mJREXTdMv9bg+CKMAcASRVJH9Oiyboztb3YWLjRdfy+5ocSjzKzyRYBzwCB9we9bPMp7odY1MGK1fNCM+eoRWXSEpCnEchiVK0FXFVpQEw2Cdaa95i71oWX7xu3lehAV/2iLjRVrEAvzuKN1++WU890uSMHSAdtqUCE+ijXVyMsGbAv6iJWyFgTAKAEdPEv09ZHg1Ztls5Rpz3qLcuyvMVIbykMofr4pcOFMbDoEHUM/1g6aqkERC7NsonzE1dvrJ0foaWZb2XFjMDYUuJxYWOTGBeZ4/WLxmvbVgsV9yO9LUyNO8yVOpUOw0xbU6hgDKXM//IqL7MyX6NinTJ0dPnRzt3chLN0+lhBXXJ+FiIYwCQFfx1/ASQZJJZ9pb9I6xeHn+ky12y26vrcMTCVEVAZvn719R2Y6/QEHXSEOtzF+jhqkzpsXGjNB4tnewRh56tuQWoiexHLZqnfXuivzK1db2Fq+1zW3v9Pz/JPtnjWKs4zCLtuP6RZs/7KorpboaualOGjtSnzZJHzbQn1xf3AEDBRxhFAC6F6+0NNVfG7Flh7N8pblitbm+2dm42d652+MPaE0jxfH9EPI8Xkv5h8jzDDqwrzq4vzp8sMorqjHDtWTCXyCPHa3h+KZSnjt54aWUbdjk8Ei6+hNry3Zn206Xl+VslioqUWUiy5hj+lluIYA6jqAoQu8mZUAfZXA/ZcQQbdRQbVB/RWB+0MexSQijAHAc8NDJoyevtjZv98Poxi3umk+sj9dZGzbZruf/V/4K/FHajPnb1POU6bhCQ600bJA6dKA6dIA6uJ86eIBakZRs2188ixljUFKpVCmkUt6w3LXb3bqDv5zmrc66jTYvvJu2OfxmVvxUGuojMHjbkj/HbNuf0tCrUS4W6v595b5N/AuloV7218tb/pok9IMijAJASVRsamG37faU17Lb5a81G+3V620eTLfvcvfsq09IYI4uLK5XoMyfkBfRhMEDtNHDtdHDtL69lJoqqbZajkdJcSwPmzRBiSuM0ftFmDeZ2jq8tk6vo9PdvN1d32yv/cRev8ky8oWJ42KgivAhyzXjWcSf5C0WAmhhcEMbPkhpqJWrKyX+ikVEP6GiHxRhFABKNJX6oZPIkj+Ob1rMyPs9gjyYfrSeB1Nr/UZ7207Xo34fIY9o1J9XVZzNxv8Wiqdsl1S1VPyx8G36f4kiKZzH6L/RioQ4bJA6YrA6YojWr5cSi4pRnUSj/Jf4b634HgHKrlXpLwYv3OSO4x8XlDeZYdKtO5wNm5zmrfbGzQ7/2rIFf13O3vZYsRQXivGeIlyyafXTQl34h/+vhWVehcVePG2TeITw9Dl0oDpsoDqon5JMSJpKohFR1/y3hKKNMAoA5VexFRY8FR7itHjkHcsalNdq65rt9c325m1OKu2nVf7yB7L9nga/nigukyLinpxK9v5R3VQ5FWsmxvasOdi7RYu/S4Ci+N29/ksliZjYt5cyoLfSr488pL/aq0GWZf/NFXqMSOE3opaCoJVfUiiBPHgWoye/yS2Lbd3lfrLZ3rzV2b7L3b7L6cz4c1SKy/Vcf7KKP7Qt7F3vuP+fUyjMQncn1X0FeU+h9rNFYVc1gRXXafFyXZyiwIt2dZXUv5fSr7fCS3ffXnJjnSRJYjGOF59dlGE1EsIoAASuhivuOFMY8hMyObptpz9fbdsuZ8cuZ3e7l81Rw2R5kxp5ZlrU5lHV8es/Xr0Vf69QrNuE/aq34p98wD8EgX26ncp+fZx7K6e91ZUs+cuteLWkqaKmCvzHiC5GIyQRF+uqpLpaqb5GbmqQ+/VS6mpk/v/y62OK+gnQyNxThPnX6Szd0eLsbPV2tri729y2Tq89RXMGNS2/CPMfC63NPWm1OHGF7AupnzY1PzsBgOxfnD+nRO8tzkJhhJ0nZ9Uvy4WsyX8stCR5oY7oJBYltYUpNHU1Ul213FQv9WrwxzSKR8NT9mmLFBBGEUYBQkQsDgtKgiT623TzkJrPU3/KWspr7/RSGZ5NGY+n/MXrNiNPTbu4oNVPqH5njO2fV1QYKyxkRLpnS7/ioFtxVL3Qeen/L/b2cYq8flIU/1BvXRN5VZSMizx6JmL8xTOoVFXBKyopHpOKGzTyP9MfmysMz+HzAjhoKRYLg/u8LPMSJxXmsWQNr8MvwrQz7bcws4ZfhHMGy+X9diZvbRYLsuMKjsO/Fgpfs+Keu36Jpnt28Szky+J01U/nyfAoXCzR+8Yu9n3BQycvzvGolIiTeFTkBZmX64oKqbpCSibEwlOCl+VCufYnC2HhERwyjMq4EAAh4Y/9+adiFvo99lZsPA7WVkn7VTyFn2XMNJlpU6dQbxW7WPgXB4TR4kA5K1RdhRpr/zD66Zj73pemF/pavb2z34p/QiF38hyMTwfg8EuxK3xaioXC7m/VVXJdzZ4ZmXu6UcVCXyj1y7LtFsPonkhaXA/0aRjdW6L5j8LeeTvFEr0vjCrFDCrvC6O8hSlKMhH2zpnZ90woBFCWSmMaDRwBhFEAVGwHVGz7qjdZEhVJIJG9k8/2m39GPjuqJxQmgu776oDRef43rwutNLpFALqnIBd6Hw9akPcO9Au6Jur6p4P1wmeL82dLNNtvqH5fiRb2Tg91PcExKIo0IIwCQPdWb8IXnKuHigig1O03L/MLCyxKNBw3OI8MAAAAABBGAQAAAABhFAAAAAAAYRQAAAAAEEYBAAAAABBGAQAAAABhFAAAAAAAYRQAAAAAEEYBAAAAABBGAQAAAABhFAAAAAAAYRQAAAAAEEYBAAAAABBGAQAAAABhFAAAAAAAYRQAAAAAEEYBAAAAAGEUAAAAAABhFAAAAAAQRgEAAAAAEEYBAAAAAGEUAAAAAABhFAAAAAAQRgEAAAAAEEYBAAAAAGEUAAAAAABhFAAAAAAQRgEAAAAAEEYBAAAAAGEUAAAAAABhFAAAAAAQRgEAAAAAEEYBAAAAAGEUAAAAABBGAQAAAAAQRgEAAAAAYRQAAAAAAGEUAAAAABBGAQAAAAAQRgEAAAAAYRQAAAAAAGEUAAAAABBGAQAAAAAQRgEAAAAAYRQAAAAAAGEUAAAAABBGAQAAAAAQRgEAAAAAYRQAAAAAEEYBAAAAABBGAQAAAABhFAAAAAAAYRQAAAAAEEYBAAAAABBGAQAAAABhFAAAAAAAYRQAAAAAEEYBAAAAABBGAQAAAABhFAAAAAAAYRQAAAAAEEYBAAAAABBGAQAAAABhFAAAAAAAYRQAAAAAEEYBAAAAIJxkgXm4CgAAAADQ05grCFQmSj0uBQAAAAD0NBonYvL/CzAA7RQUUFJACbsAAAAASUVORK5CYII=;" parent="1" vertex="1">
          <mxGeometry x="50" y="-470" width="48" height="48" as="geometry" />
        </mxCell>
        <mxCell id="uaZkST2R03m6mHmcRqh3-37" value="" style="line;strokeWidth=2;html=1;fontSize=14;" parent="1" vertex="1">
          <mxGeometry x="4" y="-763" width="1090" height="10" as="geometry" />
        </mxCell>
        <mxCell id="uaZkST2R03m6mHmcRqh3-38" value="Real Estate Community Ranking Backend Diagram" style="text;html=1;resizable=0;points=[];autosize=1;align=left;verticalAlign=top;spacingTop=-4;fontSize=30;fontStyle=1" parent="1" vertex="1">
          <mxGeometry x="20" y="-810" width="750" height="40" as="geometry" />
        </mxCell>
        <mxCell id="7-jYD9q1cmxNyFZY4TW0-8" style="edgeStyle=orthogonalEdgeStyle;rounded=0;orthogonalLoop=1;jettySize=auto;html=1;startArrow=none;startFill=0;entryX=0;entryY=0.5;entryDx=0;entryDy=0;entryPerimeter=0;" parent="1" source="uaZkST2R03m6mHmcRqh3-2" target="7-jYD9q1cmxNyFZY4TW0-7" edge="1">
          <mxGeometry relative="1" as="geometry">
            <mxPoint x="240.5" y="-369.9991459804146" as="sourcePoint" />
            <Array as="points">
              <mxPoint x="360" y="-410" />
              <mxPoint x="360" y="-302" />
            </Array>
          </mxGeometry>
        </mxCell>
        <mxCell id="lJbwwW_WX1DoQPfi_LCT-44" style="edgeStyle=orthogonalEdgeStyle;rounded=0;orthogonalLoop=1;jettySize=auto;html=1;entryX=0;entryY=0.5;entryDx=0;entryDy=0;entryPerimeter=0;" parent="1" source="uaZkST2R03m6mHmcRqh3-2" target="lJbwwW_WX1DoQPfi_LCT-40" edge="1">
          <mxGeometry relative="1" as="geometry">
            <Array as="points">
              <mxPoint x="360" y="-440" />
              <mxPoint x="360" y="-542" />
            </Array>
          </mxGeometry>
        </mxCell>
        <mxCell id="uaZkST2R03m6mHmcRqh3-2" value="&lt;span style=&quot;background-color: rgb(255, 255, 255);&quot;&gt;IGW&lt;/span&gt;" style="sketch=0;outlineConnect=0;fontColor=#232F3E;gradientColor=none;fillColor=#4D27AA;strokeColor=none;dashed=0;verticalLabelPosition=bottom;verticalAlign=top;align=center;html=1;fontSize=12;fontStyle=0;aspect=fixed;pointerEvents=1;shape=mxgraph.aws4.internet_gateway;" parent="1" vertex="1">
          <mxGeometry x="203" y="-460" width="75" height="75" as="geometry" />
        </mxCell>
        <mxCell id="uaZkST2R03m6mHmcRqh3-21" style="edgeStyle=orthogonalEdgeStyle;rounded=0;orthogonalLoop=1;jettySize=auto;html=1;startArrow=classic;startFill=1;entryX=0;entryY=0.5;entryDx=0;entryDy=0;entryPerimeter=0;" parent="1" source="uaZkST2R03m6mHmcRqh3-2" target="AB8S8MmQHIN8iAVKSJhB-4" edge="1">
          <mxGeometry relative="1" as="geometry">
            <Array as="points">
              <mxPoint x="370" y="-422" />
              <mxPoint x="370" y="-422" />
            </Array>
            <mxPoint x="240.5" y="-369.9991459804146" as="sourcePoint" />
          </mxGeometry>
        </mxCell>
        <mxCell id="7-jYD9q1cmxNyFZY4TW0-4" style="edgeStyle=orthogonalEdgeStyle;rounded=0;orthogonalLoop=1;jettySize=auto;html=1;" parent="1" source="7-jYD9q1cmxNyFZY4TW0-3" target="jTYM3ZoHMfzBCkcCrma9-1" edge="1">
          <mxGeometry relative="1" as="geometry">
            <Array as="points">
              <mxPoint x="129" y="-360" />
              <mxPoint x="129" y="-360" />
            </Array>
          </mxGeometry>
        </mxCell>
        <mxCell id="7-jYD9q1cmxNyFZY4TW0-14" value="&amp;nbsp;file upload&amp;nbsp;&lt;br&gt;+ btn click" style="edgeLabel;html=1;align=center;verticalAlign=middle;resizable=0;points=[];" parent="7-jYD9q1cmxNyFZY4TW0-4" vertex="1" connectable="0">
          <mxGeometry x="0.0261" y="1" relative="1" as="geometry">
            <mxPoint x="1" y="19" as="offset" />
          </mxGeometry>
        </mxCell>
        <mxCell id="7-jYD9q1cmxNyFZY4TW0-3" value="Client (Customer)" style="sketch=0;outlineConnect=0;fontColor=#232F3E;gradientColor=none;fillColor=#232F3D;strokeColor=none;dashed=0;verticalLabelPosition=bottom;verticalAlign=top;align=center;html=1;fontSize=12;fontStyle=0;aspect=fixed;pointerEvents=1;shape=mxgraph.aws4.user;labelPosition=center;" parent="1" vertex="1">
          <mxGeometry x="90" y="-270" width="78" height="78" as="geometry" />
        </mxCell>
      </root>
    </mxGraphModel>
  </diagram>
</mxfile>
